<?xml version="1.0" encoding="utf-8"?>
<!-- Generator: Adobe Illustrator 25.0.0, SVG Export Plug-In . SVG Version: 6.00 Build 0)  -->
<svg version="1.1" id="Capa_1" xmlns="http://www.w3.org/2000/svg" xmlns:xlink="http://www.w3.org/1999/xlink" x="0px" y="0px"
	 viewBox="0 0 180 107" style="enable-background:new 0 0 180 107;" xml:space="preserve">
<style type="text/css">
	.st0{fill:#FFFFFF;}
</style>
<g>
	<g>
		<path class="st0" d="M82.55,31.28c-0.03-0.67-0.05-1.34-0.08-2.01c0.47,0.02,0.94,0.04,1.4,0.05c0.47,0.02,0.93,0.03,1.4,0.03
			c0.47,0,0.93-0.01,1.4-0.03c0.46-0.02,0.93-0.03,1.4-0.05c-0.03,0.16-0.04,0.32-0.04,0.48c0,0.16,0.01,0.31,0.04,0.47
			c-0.33-0.02-0.63-0.04-0.91-0.06c-0.28-0.02-0.57-0.04-0.88-0.06c-0.31-0.02-0.65-0.04-1.01-0.05C84.91,30.01,84.46,30,83.95,30
			c-0.02,0.33-0.03,0.66-0.05,0.96c-0.01,0.3-0.02,0.65-0.02,1.04c0,0.41,0,0.8,0,1.19c0,0.39,0,0.69,0,0.88
			c0.46,0,0.88-0.01,1.25-0.02c0.37-0.01,0.7-0.02,1.01-0.03c0.3-0.02,0.58-0.03,0.84-0.05c0.26-0.02,0.5-0.03,0.73-0.05
			c-0.03,0.16-0.05,0.32-0.05,0.49c0,0.16,0.02,0.31,0.05,0.47c-0.27-0.03-0.59-0.05-0.95-0.08c-0.36-0.02-0.72-0.04-1.09-0.04
			c-0.36-0.01-0.7-0.01-1.02-0.02c-0.32,0-0.57-0.01-0.77-0.01c0,0.1,0,0.2,0,0.31c0,0.11,0,0.25,0,0.42v0.61v0.95
			c0,0.6,0,1.09,0,1.48c0,0.39,0.01,0.69,0.03,0.88h1.1c0.4,0,0.79-0.01,1.17-0.02c0.38-0.01,0.75-0.04,1.08-0.06
			c0.34-0.03,0.64-0.07,0.89-0.12c-0.02,0.07-0.04,0.16-0.04,0.24c0,0.09-0.01,0.18-0.01,0.25c0,0.17,0.01,0.31,0.05,0.41
			c-0.47-0.02-0.94-0.03-1.41-0.03h-1.42H83.9c-0.47,0-0.94,0.01-1.42,0.03c0.03-0.67,0.05-1.34,0.08-2
			c0.03-0.68,0.04-1.35,0.04-2.05v-2.71C82.6,32.64,82.58,31.95,82.55,31.28"/>
		<path class="st0" d="M90.44,38.61c0.14,0.19,0.32,0.37,0.52,0.52c0.21,0.16,0.44,0.29,0.71,0.4c0.28,0.09,0.58,0.14,0.91,0.14
			c0.35,0,0.66-0.06,0.94-0.18c0.28-0.12,0.51-0.28,0.71-0.49c0.19-0.2,0.34-0.44,0.44-0.72c0.11-0.28,0.16-0.57,0.16-0.89
			c0-0.48-0.12-0.86-0.37-1.15c-0.24-0.28-0.55-0.52-0.92-0.7c-0.37-0.19-0.77-0.37-1.19-0.53c-0.42-0.16-0.82-0.35-1.19-0.59
			c-0.37-0.24-0.68-0.54-0.92-0.9c-0.25-0.37-0.37-0.86-0.37-1.48c0-0.44,0.07-0.84,0.24-1.2c0.15-0.37,0.38-0.68,0.68-0.94
			c0.29-0.26,0.66-0.47,1.07-0.62c0.42-0.14,0.89-0.22,1.42-0.22c0.5,0,0.93,0.06,1.3,0.18c0.36,0.12,0.71,0.3,1.02,0.56
			c-0.09,0.18-0.18,0.37-0.24,0.57c-0.06,0.21-0.13,0.45-0.18,0.76H95c-0.05-0.15-0.12-0.31-0.21-0.48
			c-0.09-0.18-0.21-0.34-0.36-0.48c-0.16-0.15-0.34-0.27-0.55-0.37c-0.21-0.1-0.46-0.15-0.75-0.15c-0.3,0-0.57,0.05-0.82,0.14
			c-0.24,0.1-0.46,0.23-0.65,0.41c-0.18,0.17-0.32,0.38-0.42,0.62c-0.1,0.24-0.15,0.51-0.15,0.79c0,0.49,0.12,0.89,0.37,1.16
			c0.24,0.28,0.55,0.52,0.92,0.72c0.37,0.19,0.76,0.37,1.18,0.52c0.43,0.15,0.83,0.34,1.19,0.56c0.36,0.23,0.67,0.5,0.92,0.85
			c0.24,0.34,0.37,0.81,0.37,1.39c0,0.48-0.08,0.94-0.25,1.37c-0.18,0.43-0.43,0.81-0.76,1.13c-0.33,0.31-0.73,0.57-1.21,0.74
			c-0.47,0.17-1.02,0.26-1.62,0.26c-0.65,0-1.17-0.09-1.58-0.26c-0.41-0.17-0.74-0.37-1.02-0.6c0.1-0.24,0.16-0.45,0.2-0.65
			c0.04-0.19,0.07-0.44,0.1-0.75h0.19C90.19,38.23,90.31,38.42,90.44,38.61"/>
		<path class="st0" d="M105.98,39.71c-0.2,0.1-0.45,0.19-0.74,0.27c-0.28,0.08-0.61,0.15-0.96,0.21c-0.36,0.07-0.73,0.1-1.12,0.1
			c-0.83,0-1.59-0.12-2.29-0.35c-0.7-0.24-1.31-0.6-1.82-1.09c-0.5-0.48-0.9-1.08-1.19-1.77c-0.29-0.7-0.43-1.49-0.43-2.39
			c0-0.89,0.14-1.69,0.43-2.39c0.29-0.7,0.69-1.29,1.21-1.77c0.51-0.48,1.14-0.85,1.87-1.1c0.72-0.25,1.51-0.38,2.38-0.38
			c0.69,0,1.32,0.07,1.89,0.21c0.56,0.15,1.08,0.32,1.52,0.51c-0.09,0.15-0.16,0.35-0.2,0.6c-0.05,0.25-0.09,0.46-0.13,0.63
			l-0.09,0.03c-0.11-0.13-0.25-0.27-0.44-0.43c-0.19-0.16-0.41-0.31-0.66-0.46c-0.25-0.15-0.54-0.27-0.85-0.37
			c-0.32-0.1-0.66-0.15-1.03-0.15c-0.62,0-1.19,0.1-1.72,0.3c-0.53,0.2-0.99,0.51-1.39,0.92c-0.39,0.41-0.69,0.94-0.92,1.57
			c-0.22,0.63-0.33,1.38-0.33,2.26c0,0.87,0.11,1.62,0.33,2.26c0.23,0.63,0.53,1.17,0.92,1.58c0.4,0.41,0.86,0.72,1.39,0.92
			c0.53,0.2,1.1,0.3,1.72,0.3c0.37,0,0.73-0.05,1.04-0.14c0.32-0.1,0.61-0.21,0.88-0.34c0.27-0.13,0.51-0.27,0.73-0.42
			c0.21-0.15,0.39-0.29,0.54-0.4l0.06,0.06l-0.14,0.93C106.33,39.53,106.19,39.62,105.98,39.71"/>
		<path class="st0" d="M116.95,30.93c-0.01-0.81-0.04-1.37-0.07-1.67c0.11,0.02,0.22,0.04,0.33,0.05c0.1,0.02,0.21,0.03,0.31,0.03
			c0.14,0,0.3-0.03,0.48-0.08c-0.03,0.37-0.07,0.81-0.09,1.31c-0.03,0.51-0.06,1.06-0.08,1.64c-0.03,0.58-0.04,1.19-0.06,1.8
			c-0.02,0.61-0.03,1.22-0.05,1.79c-0.01,0.7-0.12,1.33-0.32,1.89c-0.21,0.56-0.5,1.03-0.87,1.42c-0.38,0.39-0.84,0.68-1.39,0.88
			c-0.55,0.2-1.18,0.3-1.9,0.3c-1.57,0-2.71-0.35-3.42-1.07c-0.71-0.71-1.07-1.84-1.07-3.39c0-0.49,0.02-0.94,0.04-1.31
			c0.02-0.39,0.04-0.78,0.04-1.17c0-0.88-0.01-1.67-0.03-2.35c-0.02-0.69-0.04-1.26-0.07-1.74c0.13,0.02,0.26,0.04,0.41,0.05
			c0.15,0.02,0.28,0.03,0.41,0.03c0.12,0,0.23-0.01,0.33-0.03c0.11-0.02,0.22-0.03,0.34-0.05c-0.02,0.23-0.04,0.53-0.06,0.9
			c-0.02,0.38-0.05,0.8-0.06,1.27c-0.02,0.47-0.04,0.98-0.05,1.53c-0.01,0.55-0.01,1.11-0.01,1.7c0,0.36,0,0.73,0.01,1.11
			c0.01,0.38,0.05,0.76,0.11,1.12c0.06,0.36,0.16,0.71,0.3,1.04c0.15,0.33,0.35,0.62,0.61,0.86c0.27,0.25,0.6,0.43,1,0.58
			c0.4,0.15,0.89,0.21,1.48,0.21c0.57,0,1.06-0.08,1.45-0.25c0.39-0.17,0.71-0.39,0.96-0.66c0.25-0.28,0.44-0.59,0.59-0.95
			c0.15-0.36,0.24-0.73,0.31-1.12c0.06-0.39,0.1-0.78,0.11-1.17c0.01-0.38,0.02-0.74,0.02-1.07
			C116.98,32.89,116.97,31.74,116.95,30.93"/>
		<path class="st0" d="M120.96,31.28c-0.02-0.67-0.05-1.34-0.08-2.01c0.47,0.02,0.94,0.04,1.41,0.05c0.46,0.02,0.93,0.03,1.4,0.03
			c0.48,0,0.94-0.01,1.4-0.03c0.45-0.02,0.92-0.03,1.4-0.05c-0.03,0.16-0.04,0.32-0.04,0.48c0,0.16,0.01,0.31,0.04,0.47
			c-0.33-0.02-0.64-0.04-0.91-0.06c-0.28-0.02-0.58-0.04-0.88-0.06c-0.31-0.02-0.64-0.04-1.02-0.05c-0.37-0.02-0.81-0.02-1.32-0.02
			c-0.01,0.33-0.02,0.66-0.03,0.96c-0.02,0.3-0.02,0.65-0.02,1.04c0,0.41,0.01,0.8,0.01,1.19c0,0.39,0,0.69,0,0.88
			c0.46,0,0.88-0.01,1.24-0.02c0.37-0.01,0.71-0.02,1.01-0.03c0.3-0.02,0.59-0.03,0.84-0.05c0.25-0.02,0.5-0.03,0.73-0.05
			c-0.03,0.16-0.05,0.32-0.05,0.49c0,0.16,0.02,0.31,0.05,0.47c-0.27-0.03-0.59-0.05-0.95-0.08c-0.36-0.02-0.72-0.04-1.08-0.04
			c-0.36-0.01-0.7-0.01-1.02-0.02c-0.32,0-0.57-0.01-0.76-0.01c0,0.1,0,0.2,0,0.31c0,0.11-0.01,0.25-0.01,0.42v0.61v0.95
			c0,0.6,0.01,1.09,0.01,1.48c0,0.39,0.02,0.69,0.02,0.88h1.1c0.39,0,0.78-0.01,1.17-0.02c0.39-0.01,0.75-0.04,1.09-0.06
			c0.34-0.03,0.64-0.07,0.89-0.12c-0.02,0.07-0.03,0.16-0.05,0.24v0.25c0,0.17,0.02,0.31,0.05,0.41c-0.47-0.02-0.94-0.03-1.41-0.03
			h-1.42h-1.43c-0.47,0-0.95,0.01-1.43,0.03c0.03-0.67,0.06-1.34,0.08-2c0.03-0.68,0.04-1.35,0.04-2.05v-2.71
			C121,32.64,120.99,31.95,120.96,31.28"/>
		<path class="st0" d="M128.82,31.3c-0.03-0.66-0.05-1.35-0.09-2.04c0.13,0.02,0.26,0.04,0.39,0.05c0.13,0.02,0.26,0.03,0.38,0.03
			c0.13,0,0.25-0.01,0.38-0.03c0.12-0.02,0.25-0.03,0.39-0.05c-0.03,0.69-0.06,1.38-0.09,2.04c-0.03,0.67-0.04,1.35-0.04,2.04
			c0,1.32,0,2.47,0.01,3.44c0.01,0.98,0.02,1.84,0.03,2.61c0.74,0,1.45-0.01,2.13-0.02c0.68-0.01,1.42-0.08,2.2-0.18
			c-0.05,0.19-0.08,0.34-0.08,0.47c0,0.12,0.03,0.26,0.08,0.42c-0.48-0.02-0.97-0.03-1.45-0.03h-1.44h-1.45
			c-0.47,0-0.96,0.01-1.45,0.03c0.03-0.65,0.06-1.31,0.09-1.98c0.02-0.68,0.04-1.36,0.04-2.05v-2.71
			C128.86,32.65,128.84,31.97,128.82,31.3"/>
		<path class="st0" d="M145.39,40.08c-0.15-0.02-0.28-0.03-0.42-0.03h-0.41h-0.42c-0.13,0-0.26,0.01-0.41,0.03
			c-0.08-0.24-0.17-0.53-0.3-0.87c-0.13-0.34-0.27-0.7-0.42-1.08c-0.15-0.36-0.31-0.75-0.47-1.13c-0.15-0.38-0.31-0.74-0.44-1.09
			c-0.33-0.01-0.67-0.02-1.02-0.02c-0.35-0.01-0.69-0.01-1.04-0.01c-0.32,0-0.64,0-0.96,0.01c-0.31,0-0.63,0.01-0.96,0.02
			c-0.33,0.82-0.64,1.6-0.9,2.34c-0.28,0.74-0.48,1.36-0.62,1.83c-0.18-0.02-0.38-0.03-0.58-0.03c-0.22,0-0.4,0.01-0.58,0.03
			c0.85-1.83,1.67-3.66,2.48-5.48c0.81-1.82,1.62-3.66,2.43-5.54h0.29c0.25,0.61,0.53,1.26,0.83,1.98c0.29,0.71,0.59,1.43,0.89,2.15
			c0.3,0.73,0.6,1.44,0.91,2.16c0.3,0.72,0.59,1.38,0.85,1.99c0.27,0.61,0.51,1.16,0.73,1.64
			C145.07,39.47,145.25,39.83,145.39,40.08 M138.43,35.19c0.26,0,0.55,0.01,0.84,0.02c0.29,0.01,0.58,0.01,0.85,0.01
			c0.29,0,0.58,0,0.87-0.01c0.29,0,0.59,0,0.88-0.02l-1.74-4L138.43,35.19z"/>
		<path class="st0" d="M82.55,50.21c-0.03-0.67-0.05-1.35-0.08-2.05c0.25,0.03,0.5,0.04,0.76,0.06c0.26,0.01,0.51,0.02,0.76,0.02
			c0.13,0,0.28-0.01,0.46-0.02c0.18-0.01,0.36-0.02,0.55-0.02c0.18,0,0.36-0.01,0.52-0.02c0.16-0.02,0.31-0.02,0.43-0.02
			c0.16,0,0.35,0.01,0.58,0.02c0.23,0.01,0.47,0.04,0.73,0.09c0.25,0.05,0.51,0.13,0.76,0.24c0.26,0.11,0.48,0.26,0.68,0.46
			c0.2,0.2,0.37,0.45,0.49,0.75c0.13,0.3,0.19,0.67,0.19,1.11c0,0.69-0.15,1.25-0.45,1.69c-0.3,0.43-0.66,0.76-1.1,1
			c-0.44,0.24-0.9,0.41-1.38,0.5c-0.49,0.08-0.92,0.12-1.3,0.12c-0.24,0-0.46-0.01-0.66-0.01c-0.2,0-0.4-0.01-0.61-0.04v0.87
			c0,0.69,0.01,1.37,0.04,2.04c0.03,0.67,0.05,1.34,0.09,1.98c-0.24-0.02-0.49-0.03-0.77-0.03c-0.27,0-0.53,0.01-0.77,0.03
			c0.03-0.65,0.05-1.31,0.08-1.98c0.03-0.67,0.04-1.35,0.04-2.04v-2.71C82.6,51.55,82.58,50.87,82.55,50.21 M85,53.55
			c0.32,0,0.66-0.04,1.01-0.11c0.35-0.07,0.66-0.21,0.95-0.4c0.29-0.19,0.53-0.46,0.71-0.8c0.18-0.35,0.27-0.78,0.27-1.32
			c0-0.45-0.07-0.82-0.19-1.1c-0.13-0.29-0.3-0.51-0.53-0.66C87,49,86.72,48.89,86.4,48.84c-0.33-0.06-0.69-0.09-1.1-0.09h-1.41
			v4.68C84.25,53.51,84.61,53.55,85,53.55"/>
		<path class="st0" d="M90.88,51.21c0.29-0.7,0.69-1.29,1.21-1.77c0.52-0.49,1.14-0.85,1.86-1.11c0.73-0.25,1.51-0.37,2.38-0.37
			c0.88,0,1.66,0.13,2.39,0.37c0.72,0.25,1.34,0.62,1.86,1.11c0.52,0.48,0.92,1.07,1.21,1.77c0.29,0.7,0.44,1.49,0.44,2.39
			c0,0.89-0.15,1.69-0.44,2.39c-0.29,0.7-0.69,1.29-1.21,1.77c-0.52,0.48-1.13,0.84-1.86,1.08c-0.72,0.24-1.51,0.35-2.39,0.35
			c-0.86,0-1.65-0.11-2.38-0.35c-0.72-0.23-1.34-0.6-1.86-1.08c-0.52-0.48-0.93-1.07-1.21-1.77c-0.28-0.7-0.43-1.5-0.43-2.39
			C90.45,52.71,90.6,51.91,90.88,51.21 M100.35,51.34c-0.22-0.64-0.52-1.16-0.92-1.58c-0.39-0.42-0.85-0.72-1.38-0.92
			c-0.53-0.2-1.1-0.3-1.72-0.3c-0.6,0-1.17,0.1-1.7,0.3c-0.53,0.2-0.99,0.5-1.38,0.92c-0.39,0.41-0.7,0.94-0.92,1.58
			c-0.22,0.63-0.33,1.39-0.33,2.26c0,0.87,0.11,1.63,0.33,2.26c0.22,0.64,0.52,1.16,0.92,1.58c0.39,0.41,0.85,0.72,1.38,0.92
			c0.53,0.2,1.1,0.3,1.7,0.3c0.62,0,1.19-0.1,1.72-0.3c0.53-0.2,0.99-0.51,1.38-0.92c0.4-0.42,0.7-0.94,0.92-1.58
			c0.22-0.63,0.33-1.39,0.33-2.26C100.68,52.73,100.57,51.97,100.35,51.34"/>
		<path class="st0" d="M104.38,50.21c-0.03-0.67-0.06-1.35-0.09-2.05c0.13,0.03,0.27,0.04,0.4,0.06c0.12,0.01,0.25,0.02,0.37,0.02
			c0.13,0,0.25-0.01,0.38-0.02c0.12-0.02,0.26-0.04,0.39-0.06c-0.04,0.7-0.06,1.38-0.09,2.05c-0.03,0.66-0.04,1.34-0.04,2.04
			c0,1.32,0,2.47,0.01,3.44c0.01,0.97,0.03,1.83,0.03,2.61c0.74,0,1.46-0.01,2.14-0.03c0.68-0.01,1.41-0.07,2.2-0.18
			c-0.05,0.19-0.08,0.35-0.08,0.48c0,0.11,0.02,0.26,0.08,0.42c-0.48-0.02-0.97-0.03-1.45-0.03h-1.44h-1.45
			c-0.46,0-0.95,0.01-1.45,0.03c0.03-0.65,0.06-1.31,0.09-1.98c0.02-0.68,0.04-1.35,0.04-2.04v-2.71
			C104.42,51.55,104.4,50.87,104.38,50.21"/>
		<path class="st0" d="M112.24,50.21c-0.03-0.67-0.06-1.35-0.09-2.05c0.14,0.03,0.26,0.04,0.39,0.06c0.12,0.01,0.25,0.02,0.38,0.02
			s0.25-0.01,0.38-0.02c0.12-0.02,0.25-0.04,0.39-0.06c-0.03,0.7-0.06,1.38-0.09,2.05c-0.03,0.66-0.04,1.34-0.04,2.04v2.71
			c0,0.69,0.01,1.37,0.04,2.04c0.03,0.67,0.06,1.34,0.09,1.98c-0.24-0.02-0.5-0.03-0.77-0.03c-0.27,0-0.53,0.01-0.77,0.03
			c0.03-0.65,0.05-1.31,0.09-1.98c0.02-0.68,0.04-1.35,0.04-2.04v-2.71C112.28,51.55,112.26,50.87,112.24,50.21"/>
		<path class="st0" d="M118.77,48.99c-0.27,0-0.55,0-0.85,0.01c-0.3,0-0.59,0.01-0.9,0.03c-0.3,0.02-0.58,0.03-0.87,0.05
			c-0.28,0.02-0.52,0.05-0.74,0.08c0.06-0.19,0.08-0.36,0.08-0.5c0-0.12-0.02-0.28-0.08-0.49c0.69,0.03,1.37,0.04,2.03,0.06
			c0.66,0.02,1.33,0.02,2.02,0.02c0.69,0,1.37-0.01,2.03-0.02c0.66-0.02,1.33-0.03,2.03-0.06c-0.05,0.22-0.08,0.38-0.08,0.51
			c0,0.14,0.03,0.3,0.08,0.49c-0.22-0.03-0.47-0.06-0.75-0.08c-0.27-0.02-0.56-0.03-0.86-0.05c-0.3-0.02-0.6-0.03-0.9-0.03
			c-0.29-0.01-0.58-0.01-0.85-0.01c-0.03,1.08-0.05,2.17-0.05,3.26v2.71c0,0.69,0.01,1.37,0.04,2.04c0.02,0.67,0.06,1.34,0.08,1.98
			c-0.24-0.02-0.49-0.03-0.77-0.03c-0.27,0-0.53,0.01-0.77,0.03c0.03-0.64,0.06-1.31,0.08-1.98c0.03-0.67,0.04-1.35,0.04-2.04v-2.71
			C118.82,51.16,118.81,50.07,118.77,48.99"/>
		<path class="st0" d="M125.33,50.18c-0.02-0.67-0.05-1.35-0.08-2.02c0.47,0.02,0.94,0.04,1.4,0.06c0.47,0.02,0.93,0.02,1.41,0.02
			c0.47,0,0.94-0.01,1.39-0.02c0.46-0.02,0.93-0.04,1.4-0.06c-0.03,0.16-0.05,0.32-0.05,0.47c0,0.16,0.02,0.32,0.05,0.47
			c-0.34-0.02-0.64-0.04-0.92-0.06c-0.28-0.02-0.57-0.04-0.88-0.06c-0.3-0.02-0.64-0.04-1.01-0.06c-0.37-0.02-0.81-0.02-1.33-0.02
			c-0.01,0.34-0.02,0.66-0.03,0.96c-0.02,0.3-0.03,0.65-0.03,1.04c0,0.4,0,0.8,0.01,1.19v0.88c0.46,0,0.88,0,1.25-0.02
			c0.36-0.01,0.7-0.02,1-0.03c0.31-0.02,0.59-0.03,0.85-0.05c0.25-0.01,0.5-0.03,0.73-0.05c-0.03,0.16-0.05,0.32-0.05,0.49
			c0,0.17,0.02,0.31,0.05,0.47c-0.27-0.03-0.59-0.06-0.95-0.08c-0.36-0.02-0.72-0.03-1.09-0.04c-0.37-0.01-0.7-0.01-1.02-0.01
			c-0.32-0.01-0.57-0.01-0.76-0.01v0.31c-0.01,0.11-0.01,0.25-0.01,0.41v0.62v0.95c0,0.6,0,1.09,0.01,1.48
			c0,0.39,0.02,0.69,0.02,0.88h1.09c0.4,0,0.79-0.01,1.17-0.03c0.38-0.01,0.74-0.04,1.08-0.06c0.34-0.03,0.64-0.07,0.88-0.12
			c-0.02,0.08-0.03,0.15-0.04,0.25c-0.01,0.09-0.01,0.17-0.01,0.25c0,0.17,0.02,0.3,0.05,0.41c-0.47-0.02-0.93-0.03-1.4-0.03h-1.42
			h-1.43c-0.47,0-0.94,0.01-1.42,0.03c0.03-0.67,0.06-1.34,0.08-2.01c0.02-0.66,0.04-1.34,0.04-2.03v-2.71
			C125.37,51.54,125.36,50.86,125.33,50.18 M129.96,44.72c0.1,0,0.22,0.04,0.34,0.12c0.11,0.08,0.18,0.21,0.18,0.38
			c0,0.19-0.07,0.34-0.19,0.45c-0.13,0.11-0.26,0.21-0.37,0.29l-2.32,1.48h-0.66l2.31-2.35C129.51,44.84,129.74,44.72,129.96,44.72"
			/>
		<path class="st0" d="M140.9,58.62c-0.2,0.1-0.45,0.19-0.74,0.27c-0.29,0.08-0.61,0.15-0.97,0.21c-0.35,0.07-0.73,0.1-1.11,0.1
			c-0.83,0-1.59-0.11-2.29-0.35c-0.7-0.24-1.3-0.6-1.81-1.08c-0.52-0.48-0.92-1.07-1.2-1.77c-0.29-0.7-0.44-1.5-0.44-2.39
			c0-0.89,0.14-1.69,0.44-2.39c0.28-0.7,0.69-1.29,1.2-1.77c0.52-0.49,1.14-0.85,1.86-1.11c0.72-0.25,1.52-0.37,2.39-0.37
			c0.69,0,1.32,0.07,1.89,0.22c0.57,0.13,1.07,0.31,1.52,0.51c-0.08,0.15-0.16,0.35-0.2,0.6c-0.06,0.25-0.1,0.46-0.12,0.63
			l-0.1,0.04c-0.1-0.13-0.25-0.27-0.44-0.43c-0.19-0.16-0.41-0.31-0.66-0.45c-0.25-0.15-0.54-0.27-0.84-0.38
			c-0.32-0.09-0.67-0.14-1.04-0.14c-0.62,0-1.19,0.1-1.72,0.3c-0.53,0.2-0.99,0.5-1.38,0.92c-0.39,0.41-0.7,0.94-0.92,1.58
			c-0.22,0.63-0.33,1.39-0.33,2.26c0,0.87,0.11,1.63,0.33,2.26c0.22,0.64,0.53,1.16,0.92,1.58c0.39,0.41,0.85,0.72,1.38,0.92
			c0.54,0.2,1.1,0.3,1.72,0.3c0.37,0,0.72-0.05,1.04-0.14c0.32-0.09,0.61-0.2,0.88-0.33c0.26-0.13,0.5-0.28,0.71-0.43
			c0.22-0.15,0.4-0.29,0.55-0.4l0.06,0.06l-0.14,0.93C141.26,58.43,141.11,58.52,140.9,58.62"/>
		<path class="st0" d="M148.71,54.9c-1.37-1.46-2.73-2.92-4.09-4.36c-0.01,0.3-0.02,0.68-0.03,1.18c-0.01,0.49-0.01,1.17-0.01,2.01
			v0.82c0,0.33,0.01,0.67,0.02,1.02c0,0.36,0.01,0.72,0.02,1.09c0.02,0.37,0.02,0.71,0.03,1.03c0.02,0.31,0.02,0.58,0.03,0.82
			c0.01,0.24,0.02,0.39,0.03,0.48c-0.17-0.02-0.35-0.03-0.55-0.03c-0.21,0-0.4,0.01-0.58,0.03c0.02-0.11,0.04-0.3,0.07-0.58
			c0.02-0.28,0.05-0.62,0.07-1.01c0.02-0.4,0.05-0.82,0.07-1.29c0.02-0.46,0.04-0.92,0.06-1.38c0.02-0.47,0.03-0.91,0.04-1.35
			c0.01-0.44,0.01-0.84,0.01-1.19c0-1.01,0-1.87,0-2.59c-0.01-0.73-0.02-1.27-0.04-1.63h0.25c0.64,0.7,1.32,1.43,2.05,2.23
			c0.72,0.8,1.45,1.58,2.16,2.35c0.72,0.77,1.4,1.5,2.05,2.19c0.65,0.68,1.21,1.27,1.69,1.75v-2.14c0-1.1-0.02-2.18-0.02-3.22
			c-0.02-1.04-0.05-2.03-0.1-2.95c0.21,0.06,0.39,0.08,0.53,0.08c0.12,0,0.29-0.02,0.5-0.08c-0.02,0.24-0.05,0.58-0.07,1.04
			c-0.03,0.46-0.05,0.95-0.07,1.48c-0.03,0.53-0.05,1.04-0.07,1.55c-0.02,0.5-0.03,0.9-0.03,1.21v0.94c0,0.36,0,0.73,0.01,1.12
			c0,0.39,0,0.78,0.01,1.17c0.01,0.4,0.01,0.76,0.01,1.1c0.01,0.34,0.01,0.64,0.01,0.89v0.52h-0.22
			C151.35,57.8,150.06,56.37,148.71,54.9"/>
		<path class="st0" d="M155.89,50.21c-0.02-0.67-0.05-1.35-0.09-2.05c0.13,0.03,0.27,0.04,0.39,0.06c0.13,0.01,0.26,0.02,0.38,0.02
			c0.13,0,0.25-0.01,0.38-0.02c0.12-0.02,0.26-0.04,0.39-0.06c-0.03,0.7-0.06,1.38-0.09,2.05c-0.03,0.66-0.03,1.34-0.03,2.04v2.71
			c0,0.69,0.01,1.37,0.03,2.04c0.03,0.67,0.06,1.34,0.09,1.98c-0.24-0.02-0.5-0.03-0.77-0.03c-0.27,0-0.53,0.01-0.77,0.03
			c0.03-0.65,0.06-1.31,0.09-1.98c0.03-0.68,0.03-1.35,0.03-2.04v-2.71C155.92,51.55,155.91,50.87,155.89,50.21"/>
		<path class="st0" d="M167.97,58.62c-0.21,0.1-0.45,0.19-0.74,0.27c-0.29,0.08-0.61,0.15-0.97,0.21c-0.36,0.07-0.72,0.1-1.11,0.1
			c-0.83,0-1.59-0.11-2.3-0.35c-0.7-0.24-1.3-0.6-1.81-1.08c-0.51-0.48-0.91-1.07-1.19-1.77c-0.3-0.7-0.43-1.5-0.43-2.39
			c0-0.89,0.14-1.69,0.43-2.39c0.28-0.7,0.69-1.29,1.21-1.77c0.52-0.49,1.14-0.85,1.86-1.11c0.72-0.25,1.52-0.37,2.39-0.37
			c0.69,0,1.32,0.07,1.89,0.22c0.57,0.13,1.07,0.31,1.52,0.51c-0.09,0.15-0.15,0.35-0.21,0.6c-0.06,0.25-0.09,0.46-0.12,0.63
			l-0.1,0.04c-0.1-0.13-0.25-0.27-0.44-0.43c-0.18-0.16-0.41-0.31-0.66-0.45c-0.25-0.15-0.54-0.27-0.85-0.38
			c-0.31-0.09-0.66-0.14-1.04-0.14c-0.62,0-1.19,0.1-1.72,0.3c-0.53,0.2-0.99,0.5-1.38,0.92c-0.4,0.41-0.7,0.94-0.92,1.58
			c-0.22,0.63-0.33,1.39-0.33,2.26c0,0.87,0.11,1.63,0.33,2.26c0.22,0.64,0.52,1.16,0.92,1.58c0.4,0.41,0.85,0.72,1.38,0.92
			c0.53,0.2,1.11,0.3,1.72,0.3c0.38,0,0.73-0.05,1.04-0.14c0.32-0.09,0.62-0.2,0.88-0.33c0.26-0.13,0.51-0.28,0.72-0.43
			c0.22-0.15,0.39-0.29,0.54-0.4l0.07,0.06l-0.15,0.93C168.32,58.43,168.17,58.52,167.97,58.62"/>
		<path class="st0" d="M178.74,58.99c-0.15-0.02-0.29-0.03-0.42-0.03h-0.42h-0.42c-0.12,0-0.27,0.01-0.41,0.03
			c-0.08-0.24-0.17-0.53-0.3-0.88c-0.12-0.33-0.27-0.7-0.42-1.07c-0.15-0.37-0.31-0.74-0.46-1.13c-0.16-0.38-0.31-0.75-0.44-1.09
			c-0.34-0.01-0.68-0.03-1.02-0.03c-0.35,0-0.69-0.01-1.03-0.01c-0.33,0-0.65,0.01-0.96,0.01c-0.32,0-0.64,0.01-0.96,0.03
			c-0.34,0.82-0.64,1.6-0.91,2.34c-0.28,0.74-0.48,1.35-0.62,1.83c-0.18-0.02-0.38-0.03-0.58-0.03c-0.21,0-0.41,0.01-0.58,0.03
			c0.85-1.83,1.68-3.67,2.49-5.48c0.8-1.82,1.61-3.66,2.43-5.54h0.3c0.26,0.61,0.52,1.27,0.82,1.98c0.29,0.71,0.59,1.42,0.89,2.15
			c0.3,0.73,0.61,1.45,0.91,2.16c0.3,0.72,0.59,1.38,0.85,2c0.26,0.61,0.51,1.16,0.72,1.64C178.43,58.37,178.6,58.74,178.74,58.99
			 M171.78,54.09c0.28,0,0.56,0.01,0.85,0.01c0.29,0.01,0.58,0.02,0.84,0.02c0.29,0,0.59-0.01,0.89-0.01c0.29,0,0.58-0.01,0.87-0.02
			l-1.74-4L171.78,54.09z"/>
		<path class="st0" d="M87.6,73.81c-1.37-1.46-2.73-2.92-4.09-4.37c-0.01,0.29-0.02,0.69-0.03,1.18c-0.01,0.49-0.02,1.17-0.02,2.02
			c0,0.22,0,0.49,0.01,0.82c0,0.32,0.01,0.67,0.02,1.03c0.01,0.35,0.02,0.72,0.02,1.08c0.01,0.37,0.02,0.71,0.03,1.02
			c0.02,0.32,0.02,0.59,0.04,0.83c0.01,0.24,0.02,0.39,0.02,0.48c-0.16-0.02-0.35-0.03-0.55-0.03c-0.2,0-0.4,0.01-0.57,0.03
			c0.02-0.1,0.04-0.29,0.07-0.58c0.03-0.28,0.05-0.62,0.07-1.01c0.02-0.4,0.04-0.82,0.07-1.28c0.03-0.46,0.05-0.92,0.06-1.39
			c0.01-0.46,0.03-0.91,0.04-1.35c0.01-0.44,0.01-0.83,0.01-1.18c0-1.01,0-1.88-0.01-2.6c0-0.73-0.02-1.27-0.03-1.62H83
			c0.64,0.69,1.32,1.43,2.05,2.22c0.73,0.8,1.45,1.58,2.17,2.35c0.72,0.77,1.4,1.5,2.04,2.19c0.64,0.69,1.21,1.27,1.69,1.76v-2.14
			c0-1.1-0.01-2.18-0.02-3.22c-0.02-1.04-0.05-2.03-0.1-2.95c0.21,0.05,0.39,0.07,0.54,0.07c0.12,0,0.29-0.02,0.49-0.07
			c-0.01,0.23-0.04,0.58-0.07,1.04c-0.02,0.47-0.05,0.96-0.08,1.48c-0.02,0.53-0.05,1.04-0.07,1.55c-0.03,0.5-0.03,0.9-0.03,1.21
			v0.95c0,0.35,0,0.73,0,1.11c0.01,0.39,0.01,0.78,0.02,1.17c0.01,0.39,0.01,0.76,0.01,1.1c0.01,0.34,0.01,0.64,0.01,0.89v0.52
			h-0.22C90.24,76.7,88.95,75.27,87.6,73.81"/>
		<path class="st0" d="M103.2,77.89c-0.14-0.02-0.28-0.03-0.41-0.03h-0.41h-0.42c-0.13,0-0.28,0.01-0.42,0.03
			c-0.07-0.24-0.17-0.54-0.3-0.87c-0.12-0.34-0.26-0.7-0.41-1.07c-0.16-0.37-0.3-0.75-0.46-1.13c-0.16-0.38-0.31-0.75-0.44-1.1
			c-0.33-0.01-0.67-0.01-1.02-0.02c-0.35-0.01-0.69-0.01-1.04-0.01c-0.33,0-0.64,0-0.96,0.01c-0.31,0.01-0.63,0.01-0.96,0.02
			c-0.34,0.82-0.64,1.6-0.91,2.34c-0.27,0.74-0.48,1.35-0.61,1.83c-0.18-0.02-0.37-0.03-0.58-0.03c-0.21,0-0.4,0.01-0.58,0.03
			c0.84-1.83,1.67-3.66,2.48-5.48c0.81-1.82,1.62-3.66,2.44-5.54h0.3c0.25,0.61,0.53,1.27,0.81,1.98c0.3,0.71,0.6,1.42,0.9,2.15
			c0.31,0.73,0.61,1.45,0.91,2.16c0.31,0.71,0.59,1.37,0.86,1.99c0.27,0.62,0.5,1.17,0.72,1.64
			C102.89,77.27,103.07,77.64,103.2,77.89 M96.24,73c0.28,0,0.56,0,0.85,0.02c0.3,0,0.58,0.01,0.85,0.01c0.29,0,0.59,0,0.88-0.01
			c0.29,0,0.58-0.01,0.88-0.02l-1.74-4L96.24,73z"/>
		<path class="st0" d="M112.21,77.52c-0.2,0.1-0.45,0.19-0.73,0.27c-0.29,0.08-0.61,0.15-0.96,0.22c-0.36,0.06-0.73,0.09-1.12,0.09
			c-0.83,0-1.6-0.12-2.3-0.35c-0.7-0.24-1.31-0.6-1.82-1.08c-0.5-0.49-0.9-1.08-1.18-1.77c-0.29-0.7-0.44-1.49-0.44-2.39
			c0-0.89,0.14-1.69,0.44-2.39c0.28-0.7,0.68-1.29,1.2-1.77c0.52-0.48,1.14-0.85,1.86-1.1c0.73-0.25,1.52-0.37,2.39-0.37
			c0.69,0,1.32,0.07,1.89,0.21c0.57,0.14,1.08,0.31,1.52,0.51c-0.09,0.15-0.15,0.35-0.21,0.6c-0.05,0.25-0.09,0.46-0.13,0.63
			l-0.09,0.03c-0.1-0.12-0.25-0.27-0.45-0.43c-0.18-0.16-0.4-0.31-0.66-0.45c-0.25-0.15-0.54-0.27-0.84-0.37
			c-0.31-0.1-0.66-0.15-1.03-0.15c-0.62,0-1.2,0.1-1.72,0.3c-0.53,0.2-0.99,0.51-1.38,0.92c-0.39,0.42-0.7,0.94-0.92,1.58
			c-0.21,0.63-0.33,1.39-0.33,2.26c0,0.87,0.11,1.63,0.33,2.26c0.23,0.63,0.53,1.16,0.92,1.57c0.39,0.42,0.85,0.73,1.38,0.92
			c0.53,0.2,1.1,0.3,1.72,0.3c0.38,0,0.72-0.05,1.05-0.14c0.32-0.09,0.61-0.2,0.88-0.34c0.26-0.13,0.5-0.27,0.72-0.42
			c0.22-0.16,0.4-0.29,0.55-0.4l0.06,0.06l-0.14,0.93C112.57,77.33,112.42,77.42,112.21,77.52"/>
		<path class="st0" d="M114.98,69.11c-0.03-0.66-0.06-1.35-0.09-2.04c0.14,0.02,0.27,0.04,0.39,0.05c0.13,0.02,0.25,0.02,0.38,0.02
			c0.12,0,0.25,0,0.37-0.02c0.13-0.02,0.25-0.04,0.4-0.05c-0.03,0.69-0.06,1.37-0.09,2.04c-0.02,0.67-0.04,1.35-0.04,2.04v2.71
			c0,0.7,0.02,1.38,0.04,2.05c0.02,0.67,0.06,1.33,0.09,1.98c-0.24-0.02-0.5-0.03-0.77-0.03c-0.28,0-0.53,0.01-0.77,0.03
			c0.03-0.65,0.06-1.31,0.09-1.98c0.02-0.68,0.03-1.36,0.03-2.05v-2.71C115.02,70.46,115.01,69.78,114.98,69.11"/>
		<path class="st0" d="M118.94,70.12c0.28-0.7,0.69-1.29,1.21-1.77c0.52-0.48,1.14-0.85,1.86-1.1c0.73-0.25,1.52-0.37,2.37-0.37
			c0.87,0,1.66,0.12,2.39,0.37c0.72,0.25,1.34,0.62,1.86,1.1c0.52,0.49,0.92,1.08,1.21,1.77c0.28,0.7,0.43,1.5,0.43,2.39
			c0,0.89-0.14,1.69-0.43,2.39c-0.29,0.7-0.69,1.29-1.21,1.77c-0.52,0.48-1.14,0.84-1.86,1.08c-0.73,0.23-1.52,0.35-2.39,0.35
			c-0.85,0-1.65-0.12-2.37-0.35c-0.72-0.24-1.34-0.6-1.86-1.08c-0.52-0.49-0.92-1.08-1.21-1.77c-0.29-0.7-0.43-1.49-0.43-2.39
			C118.51,71.62,118.65,70.82,118.94,70.12 M128.41,70.25c-0.22-0.63-0.53-1.16-0.93-1.58c-0.39-0.41-0.85-0.72-1.38-0.92
			c-0.53-0.2-1.11-0.3-1.73-0.3c-0.6,0-1.17,0.1-1.7,0.3c-0.52,0.2-0.99,0.51-1.38,0.92c-0.39,0.42-0.7,0.94-0.92,1.58
			c-0.23,0.63-0.33,1.39-0.33,2.26c0,0.87,0.1,1.63,0.33,2.26c0.22,0.63,0.52,1.16,0.92,1.57c0.39,0.42,0.86,0.73,1.38,0.92
			c0.53,0.2,1.1,0.3,1.7,0.3c0.62,0,1.19-0.1,1.73-0.3c0.53-0.2,0.99-0.51,1.38-0.92c0.4-0.41,0.7-0.94,0.93-1.57
			c0.22-0.64,0.33-1.39,0.33-2.26C128.73,71.64,128.62,70.88,128.41,70.25"/>
		<path class="st0" d="M137.47,73.81c-1.36-1.46-2.73-2.92-4.09-4.37c-0.01,0.29-0.02,0.69-0.03,1.18
			c-0.01,0.49-0.02,1.17-0.02,2.02c0,0.22,0.01,0.49,0.01,0.82c0.01,0.32,0.01,0.67,0.01,1.03c0.01,0.35,0.02,0.72,0.02,1.08
			c0.01,0.37,0.02,0.71,0.03,1.02c0.01,0.32,0.03,0.59,0.03,0.83c0.01,0.24,0.02,0.39,0.03,0.48c-0.17-0.02-0.36-0.03-0.56-0.03
			c-0.2,0-0.4,0.01-0.57,0.03c0.01-0.1,0.04-0.29,0.07-0.58c0.02-0.28,0.05-0.62,0.07-1.01c0.02-0.4,0.04-0.82,0.07-1.28
			c0.03-0.46,0.05-0.92,0.06-1.39c0.02-0.46,0.03-0.91,0.04-1.35c0.01-0.44,0.01-0.83,0.01-1.18c0-1.01,0-1.88-0.01-2.6
			c0-0.73-0.02-1.27-0.03-1.62h0.25c0.64,0.69,1.32,1.43,2.05,2.22c0.72,0.8,1.45,1.58,2.16,2.35c0.72,0.77,1.4,1.5,2.05,2.19
			c0.64,0.69,1.2,1.27,1.68,1.76v-2.14c0-1.1,0-2.18-0.02-3.22c-0.02-1.04-0.05-2.03-0.11-2.95c0.21,0.05,0.39,0.07,0.54,0.07
			c0.12,0,0.3-0.02,0.5-0.07c-0.02,0.23-0.04,0.58-0.07,1.04c-0.03,0.47-0.05,0.96-0.08,1.48c-0.02,0.53-0.05,1.04-0.07,1.55
			c-0.02,0.5-0.03,0.9-0.03,1.21v0.95c0,0.35,0.01,0.73,0.01,1.11c0.01,0.39,0.01,0.78,0.02,1.17c0.01,0.39,0.01,0.76,0.01,1.1
			c0.01,0.34,0.01,0.64,0.01,0.89v0.52h-0.22C140.11,76.7,138.83,75.27,137.47,73.81"/>
		<path class="st0" d="M153.08,77.89c-0.14-0.02-0.29-0.03-0.41-0.03h-0.41h-0.42c-0.13,0-0.27,0.01-0.42,0.03
			c-0.07-0.24-0.17-0.54-0.3-0.87c-0.12-0.34-0.26-0.7-0.42-1.07c-0.15-0.37-0.31-0.75-0.47-1.13c-0.16-0.38-0.3-0.75-0.43-1.1
			c-0.34-0.01-0.68-0.01-1.02-0.02c-0.34-0.01-0.69-0.01-1.04-0.01c-0.33,0-0.64,0-0.95,0.01c-0.32,0.01-0.63,0.01-0.96,0.02
			c-0.33,0.82-0.64,1.6-0.91,2.34c-0.28,0.74-0.48,1.35-0.62,1.83c-0.18-0.02-0.38-0.03-0.58-0.03c-0.22,0-0.4,0.01-0.58,0.03
			c0.85-1.83,1.68-3.66,2.48-5.48c0.81-1.82,1.62-3.66,2.44-5.54h0.3c0.25,0.61,0.52,1.27,0.81,1.98c0.29,0.71,0.59,1.42,0.89,2.15
			c0.3,0.73,0.6,1.45,0.91,2.16c0.3,0.71,0.58,1.37,0.86,1.99c0.26,0.62,0.5,1.17,0.72,1.64C152.77,77.27,152.95,77.64,153.08,77.89
			 M146.12,73c0.27,0,0.55,0,0.84,0.02c0.3,0,0.58,0.01,0.85,0.01c0.29,0,0.58,0,0.88-0.01c0.29,0,0.58-0.01,0.87-0.02l-1.74-4
			L146.12,73z"/>
		<path class="st0" d="M154.84,69.11c-0.02-0.66-0.05-1.35-0.08-2.04c0.14,0.02,0.26,0.04,0.39,0.05c0.12,0.02,0.25,0.02,0.38,0.02
			c0.13,0,0.25,0,0.38-0.02c0.13-0.02,0.25-0.04,0.39-0.05c-0.03,0.69-0.06,1.37-0.09,2.04c-0.03,0.67-0.04,1.35-0.04,2.04
			c0,1.32,0.01,2.47,0.02,3.44c0.01,0.97,0.02,1.85,0.03,2.61c0.75,0,1.46-0.01,2.14-0.02c0.68-0.01,1.41-0.08,2.2-0.18
			c-0.05,0.19-0.08,0.35-0.08,0.47c0,0.12,0.03,0.25,0.08,0.43c-0.48-0.02-0.96-0.03-1.45-0.03h-1.44h-1.45
			c-0.47,0-0.95,0.01-1.45,0.03c0.03-0.65,0.06-1.31,0.08-1.98c0.03-0.68,0.04-1.36,0.04-2.05v-2.71
			C154.89,70.46,154.88,69.78,154.84,69.11"/>
		<g>
			<path class="st0" d="M39.05,83.49c-0.04,0-0.08-0.01-0.12-0.02c-0.17-0.05-0.28-0.21-0.28-0.38V40.76c0-0.22,0.18-0.4,0.4-0.4
				h28.78c0.22,0,0.4,0.18,0.4,0.4v25.87c0,0.02,0,0.04,0,0.05C66.84,76.97,57.6,77.2,57.5,77.2c-0.32-0.02-0.64-0.02-0.98-0.02
				c-1.87,0-4.09,0.21-4.11,0.21c-9.84,1.5-13.01,5.89-13.04,5.94C39.3,83.43,39.18,83.49,39.05,83.49z M39.45,41.16v40.88
				c1.44-1.42,5.19-4.28,12.87-5.45c0.05-0.01,3.17-0.3,5.2-0.2c0.33-0.01,8.61-0.23,9.91-9.8V41.16H39.45z"/>
		</g>
		<g>
			<path class="st0" d="M36.99,83.59c-0.13,0-0.25-0.06-0.33-0.17l0,0c-0.03-0.05-3.24-4.44-13.06-5.94l0,0
				c-0.01,0-3.06-0.28-5.04-0.19c-0.12,0-9.37-0.22-10.75-10.52l0-25.91c0-0.22,0.18-0.4,0.4-0.4h28.78c0.22,0,0.4,0.18,0.4,0.4
				v42.32c0,0.17-0.11,0.33-0.28,0.38C37.07,83.58,37.03,83.59,36.99,83.59z M19.47,76.48c1.92,0,4.21,0.21,4.23,0.21
				c7.7,1.18,11.45,4.03,12.89,5.45V41.26H8.61v25.46c1.28,9.55,9.59,9.76,9.94,9.77C18.83,76.48,19.14,76.48,19.47,76.48z"/>
		</g>
		<g>
			<path class="st0" d="M67.83,39.2H8.45c-0.22,0-0.4-0.18-0.4-0.4V11.4c0-0.22,0.18-0.4,0.4-0.4h59.38c0.22,0,0.4,0.18,0.4,0.4
				v27.4C68.23,39.02,68.05,39.2,67.83,39.2z M8.85,38.4h58.58V11.8H8.85V38.4z"/>
		</g>
		<g>
			<path class="st0" d="M63.84,85.2c-0.09,0-0.18-0.03-0.25-0.09c-0.1-0.08-0.15-0.19-0.15-0.31v-0.1l0.04-3.38
				c-0.02-0.05-0.03-0.1-0.02-0.16c0.03-0.49-0.09-0.77-0.23-0.83c-0.02-0.01-0.05-0.01-0.08-0.01l-0.58,0.04
				c-0.2,0.01-0.39,0.01-0.6,0.01c-0.41,0-3.97-0.05-4.36-1.16c-0.02-0.04-0.02-0.08-0.02-0.13l0-0.18c0-0.64,0.88-1.06,2.6-1.27
				c0.02-0.01,0.04-0.01,0.06-0.01c7.89-0.87,12.18-7.62,12.22-7.69c0.1-0.17,0.32-0.24,0.5-0.15c0.18,0.08,0.28,0.28,0.23,0.47
				c-0.07,0.25-1.65,6.06-3.28,7.79c1.31-0.06,4.39-0.96,4.42-0.97c0.16-0.05,0.33,0.01,0.43,0.14s0.11,0.31,0.03,0.45
				c-2.31,3.88-5.87,6.35-10.88,7.55C63.91,85.2,63.87,85.2,63.84,85.2z M64.27,81.03c0.01,0.04,0.02,0.09,0.02,0.14l-0.04,3.12
				c4.15-1.09,7.21-3.12,9.32-6.19c-1.12,0.3-2.86,0.72-3.76,0.72c-0.19-0.01-0.72,0-0.88-0.4c-0.16-0.4,0.21-0.75,0.34-0.87
				c0.88-0.84,1.86-3.4,2.53-5.43c-1.88,2.17-5.71,5.62-11.39,6.27c-0.02,0.01-0.04,0.01-0.06,0.01c-1.33,0.15-1.85,0.42-1.96,0.53
				v0.02c0.22,0.21,1.45,0.6,3.59,0.61c0.19,0,0.39,0,0.58-0.01l0.13,0l0.4-0.04c0.01,0,0.05,0,0.07,0c0.15,0,0.29,0.03,0.41,0.09
				C64.03,79.81,64.28,80.33,64.27,81.03z"/>
		</g>
		<g>
			<path class="st0" d="M58.11,85.67c-0.07,0-0.14-0.02-0.2-0.06c-0.12-0.07-0.19-0.2-0.19-0.34l-0.12-6.2c0-0.2,0.14-0.37,0.33-0.4
				c0.19-0.03,0.38,0.08,0.45,0.26c0.14,0.2,1.39,0.62,3.61,0.63c0.19,0,0.39,0,0.58-0.01l0.13,0l0.4-0.04c0.01,0,0.05,0,0.07,0
				c0.15,0,0.29,0.03,0.41,0.09c0.49,0.23,0.74,0.81,0.69,1.61c-0.01,0.08-0.04,0.16-0.09,0.23c-1.23,1.47-3.24,2.91-5.81,4.15
				c-0.02,0.01-0.04,0.02-0.07,0.03C58.24,85.65,58.18,85.67,58.11,85.67z M58.41,79.85l0.09,4.78c2.17-1.1,3.88-2.34,4.97-3.6
				c0-0.41-0.11-0.65-0.23-0.71c-0.02-0.01-0.05-0.01-0.08-0.01l-0.58,0.04c-0.2,0.01-0.39,0.01-0.6,0.01
				C61.68,80.36,59.6,80.34,58.41,79.85z"/>
		</g>
		<g>
			<path class="st0" d="M12.24,85.27c-0.03,0-0.06,0-0.09-0.01c-4.99-1.2-8.54-3.67-10.83-7.55c-0.08-0.14-0.07-0.32,0.03-0.45
				c0.1-0.13,0.27-0.18,0.43-0.14c0.03,0.01,3.09,0.92,4.4,0.97c-1.62-1.72-3.2-7.54-3.26-7.79c-0.05-0.19,0.04-0.39,0.23-0.47
				c0.18-0.08,0.39-0.01,0.5,0.16c0.04,0.07,4.32,6.82,12.17,7.69c0.03,0,0.05,0.01,0.08,0.02c1.72,0.2,2.59,0.63,2.59,1.26l0,0.14
				c0,0.06-0.01,0.11-0.03,0.16c-0.48,1.07-3.94,1.11-4.34,1.11c-0.25,0-0.5,0-0.73-0.01l-0.45-0.04c-0.02,0-0.06,0.01-0.07,0.02
				c-0.13,0.06-0.24,0.3-0.23,0.73c0.01,0.03,0.01,0.07,0.01,0.11c0,0.05-0.01,0.09-0.02,0.13l0,0.33l0.05,3.2
				c0.01,0.13-0.05,0.25-0.14,0.33C12.43,85.24,12.34,85.27,12.24,85.27z M2.56,78.18c2.1,3.06,5.15,5.09,9.27,6.18l-0.04-3.19
				c0-0.03,0-0.07,0.01-0.1c-0.01-0.72,0.24-1.25,0.7-1.45c0.13-0.06,0.27-0.09,0.44-0.09l0.47,0.04c0.21,0.01,0.44,0.01,0.68,0.01
				c2.03-0.01,3.25-0.37,3.55-0.59c-0.15-0.12-0.68-0.37-1.93-0.51c-0.03,0-0.05-0.01-0.07-0.02c-5.64-0.65-9.45-4.09-11.32-6.27
				c0.66,2.03,1.64,4.59,2.51,5.42c0.12,0.12,0.5,0.48,0.34,0.87C7,78.9,6.48,78.9,6.29,78.9C5.4,78.9,3.67,78.47,2.56,78.18z"/>
		</g>
		<g>
			<path class="st0" d="M17.95,85.66c-0.07,0-0.13-0.02-0.19-0.05c0,0-0.01,0-0.01,0c-0.03-0.01-0.06-0.02-0.09-0.04
				c-2.52-1.22-4.53-2.65-5.77-4.13c-0.05-0.06-0.09-0.15-0.09-0.23c-0.05-0.8,0.21-1.37,0.7-1.59c0.13-0.06,0.27-0.09,0.44-0.09
				l0.47,0.04c0.21,0.01,0.44,0.01,0.68,0.01c2.21-0.01,3.45-0.43,3.61-0.65c0.06-0.15,0.21-0.27,0.38-0.25
				c0.22,0.01,0.39,0.19,0.39,0.41l-0.12,6.18c0,0.15-0.1,0.29-0.24,0.36C18.06,85.65,18.01,85.66,17.95,85.66z M12.6,81.03
				c1.09,1.26,2.8,2.5,4.96,3.6l0.09-4.76c-1.19,0.48-3.27,0.51-3.57,0.51c-0.25,0-0.5,0-0.73-0.01l-0.45-0.04
				c-0.02,0-0.06,0.01-0.07,0.02C12.71,80.4,12.6,80.63,12.6,81.03z"/>
		</g>
		<g>
			<path class="st0" d="M38.15,96h-0.21c-11.95,0-22.39-3.15-25.97-7.85c-0.05-0.07-0.08-0.15-0.08-0.24l-0.09-6.74
				c0-0.15,0.08-0.29,0.22-0.36c0.14-0.07,0.3-0.06,0.42,0.04c0.03,0.02,0.07,0.06,0.09,0.1c1.15,1.37,3.07,2.74,5.53,3.93
				c0.02,0.01,0.04,0.02,0.07,0.04l0,0c-0.02-0.01-0.03-0.02-0.04-0.02c0.01,0,0.03,0.01,0.05,0.02c5.37,2.58,12.59,4.05,19.81,4.05
				h0.21c7.22,0,14.44-1.47,19.8-4.05c0.02-0.01,0.05-0.03,0.1-0.04c2.45-1.19,4.36-2.55,5.52-3.93c0.11-0.13,0.3-0.19,0.46-0.13
				c0.16,0.06,0.27,0.2,0.27,0.37l-0.09,6.75c0,0.09-0.03,0.17-0.08,0.24C60.54,92.85,50.1,96,38.15,96z M12.68,87.77
				c3.47,4.38,13.82,7.43,25.26,7.43h0.21c11.44,0,21.79-3.05,25.26-7.43l0.07-5.58c-1.22,1.2-2.97,2.37-5.11,3.4
				c-0.02,0.01-0.04,0.02-0.07,0.03c-5.47,2.63-12.81,4.13-20.15,4.13h-0.21c-7.34,0-14.69-1.51-20.16-4.13
				c-0.01,0-0.01-0.01-0.02-0.01c-0.01,0-0.04-0.01-0.1-0.04c-2.09-1.01-3.83-2.17-5.06-3.37L12.68,87.77z"/>
		</g>
		<g>
			<path class="st0" d="M34.39,70.59H10.68c-0.14,0-0.26-0.12-0.26-0.27v-1.33c0-0.15,0.12-0.27,0.26-0.27h23.71
				c0.15,0,0.27,0.12,0.27,0.27v1.33C34.66,70.47,34.54,70.59,34.39,70.59z M10.95,70.06h23.18v-0.8H10.95V70.06z"/>
		</g>
		<g>
			<g>
				<path class="st0" d="M34.38,68.36c-0.15,0-0.27-0.11-0.27-0.26l-0.01-0.97c-0.27,0.14-0.68,0.14-1.09-0.1
					c-0.16,0.01-0.46,0-0.96-0.19c-0.01,0-2.17-0.67-4.53-0.67c-2.14,0-3.76,0.53-4.81,1.58c-0.1,0.1-0.29,0.1-0.39,0
					c-1.05-1.05-2.67-1.58-4.81-1.58c-2.37,0-4.53,0.67-4.55,0.68c-0.48,0.19-0.78,0.2-0.94,0.19c-0.23,0.14-0.45,0.2-0.66,0.2l0,0
					c-0.62,0-0.9-0.55-0.92-0.62c-0.02-0.04-0.02-0.07-0.02-0.11V51.09c0-0.14,0.11-0.26,0.25-0.27c0.14,0,0.26,0.09,0.28,0.23
					c0.02,0.16,0.25,0.33,0.59,0.33l0.56-0.02c0.01,0,0.02,0,0.04,0h0.33c1.47-0.58,3.01-0.87,4.58-0.87c2.87,0,4.96,0.97,5.49,1.23
					c0.52-0.27,2.61-1.23,5.49-1.23c1.57,0,3.11,0.29,4.58,0.87h0.33c0.01,0,0.03,0,0.04,0l0.61,0.02c0.31,0,0.53-0.17,0.55-0.34
					c0.02-0.14,0.14-0.24,0.28-0.23c0.14,0.01,0.25,0.13,0.25,0.27v17c0,0,0,0,0,0.01l0,0.01C34.64,68.24,34.52,68.33,34.38,68.36z
					 M17.52,65.63c2.17,0,3.85,0.53,5,1.56c1.16-1.04,2.84-1.56,5.01-1.56c2.45,0,4.62,0.68,4.71,0.7c0.57,0.22,0.77,0.16,0.77,0.16
					c0.07-0.01,0.16,0,0.22,0.03c0.17,0.11,0.32,0.17,0.45,0.17c0.25,0,0.39-0.22,0.43-0.29V51.79c-0.16,0.08-0.35,0.12-0.56,0.12
					l-0.65-0.02c-0.01,0-0.01,0-0.02,0h-0.35c-0.03,0-0.07-0.01-0.1-0.02c-1.42-0.57-2.91-0.85-4.43-0.85
					c-3.11,0-5.33,1.22-5.35,1.23c-0.08,0.05-0.2,0.05-0.28,0c-0.02-0.01-2.23-1.23-5.35-1.23c-1.52,0-3.01,0.29-4.43,0.85
					c-0.03,0.01-0.06,0.02-0.1,0.02h-0.35c-0.01,0-0.01,0-0.02,0l-0.6,0.02l0,0c-0.22,0-0.43-0.05-0.6-0.13v14.65
					c0.05,0.09,0.19,0.26,0.42,0.26c0.13,0,0.29-0.06,0.46-0.17c0.07-0.04,0.15-0.06,0.23-0.03c0,0,0.02,0,0.07,0
					c0.1,0,0.32-0.02,0.68-0.16C12.91,66.3,15.07,65.63,17.52,65.63z"/>
			</g>
			<g>
				<path class="st0" d="M34.38,69.26h-23.7c-0.15,0-0.27-0.12-0.27-0.27v-2.51c0-0.15,0.12-0.27,0.27-0.27
					c0.11,0,0.2,0.07,0.24,0.16c0,0,0,0,0,0.01c0.01,0.01,0.15,0.31,0.44,0.31c0.13,0,0.29-0.06,0.46-0.17
					c0.07-0.04,0.15-0.06,0.23-0.03c0,0,0.02,0,0.07,0c0.1,0,0.32-0.02,0.68-0.16c0.11-0.03,2.27-0.71,4.72-0.71
					c2.17,0,3.85,0.53,5,1.56c1.16-1.04,2.84-1.56,5.01-1.56c2.45,0,4.62,0.68,4.71,0.7c0.57,0.22,0.77,0.16,0.77,0.16
					c0.07-0.01,0.16,0,0.22,0.03c0.17,0.11,0.32,0.17,0.45,0.17c0.3,0,0.44-0.31,0.45-0.32c0.05-0.11,0.18-0.18,0.3-0.15
					c0.12,0.03,0.21,0.13,0.21,0.26l0.01,2.51C34.65,69.14,34.53,69.26,34.38,69.26z M10.95,68.73h23.17l-0.01-1.6
					c-0.27,0.14-0.68,0.14-1.09-0.1c-0.16,0.01-0.46,0-0.96-0.19c-0.01,0-2.17-0.67-4.53-0.67c-2.14,0-3.76,0.53-4.81,1.58
					c-0.1,0.1-0.29,0.1-0.39,0c-1.05-1.05-2.67-1.58-4.81-1.58c-2.37,0-4.53,0.67-4.55,0.68c-0.48,0.19-0.78,0.2-0.94,0.19
					c-0.4,0.24-0.82,0.24-1.09,0.11V68.73z"/>
			</g>
		</g>
		<g>
			<path class="st0" d="M29.9,25.07c-0.03,0-0.06-0.01-0.08-0.03c-0.03-0.02-0.05-0.06-0.05-0.09c-0.33-1.21-0.35-2.49-0.06-3.71
				c0-0.04,0.02-0.07,0.05-0.09c0.03-0.03,0.07-0.03,0.11-0.03c0.42,0.05,0.84,0.09,1.29,0.09c0.07,0,0.13,0.06,0.13,0.13
				c0.05,1.01,0.23,2.03,0.53,3.04c0.01,0.04,0.01,0.07-0.01,0.1c-0.02,0.03-0.05,0.05-0.08,0.07l-1.78,0.52
				C29.92,25.07,29.91,25.07,29.9,25.07z M29.94,21.39c-0.25,1.11-0.24,2.27,0.05,3.38l1.52-0.44c-0.28-0.95-0.44-1.91-0.5-2.85
				C30.65,21.46,30.29,21.44,29.94,21.39z"/>
		</g>
		<g>
			<path class="st0" d="M32.16,28.68c-0.01,0-0.02,0-0.03,0c-0.02,0-0.04-0.02-0.06-0.03l0,0c-0.49-0.44-0.91-0.93-1.26-1.44
				c-0.23-0.34-0.43-0.7-0.59-1.05l-0.02-0.04c-0.01-0.03-0.03-0.06-0.04-0.09c-0.06-0.13-0.12-0.27-0.17-0.4
				c-0.01-0.03-0.02-0.06-0.01-0.09c0.01-0.05,0.05-0.09,0.09-0.1l1.78-0.52c0.07-0.02,0.14,0.02,0.16,0.08
				c0.34,0.93,0.78,1.83,1.33,2.65c0.04,0.06,0.02,0.14-0.04,0.18c-0.34,0.22-0.67,0.48-1.06,0.81
				C32.22,28.67,32.19,28.68,32.16,28.68z M30.29,25.66c0.04,0.09,0.08,0.18,0.12,0.27c0.01,0.04,0.03,0.06,0.04,0.09l0.02,0.04
				c0.15,0.34,0.35,0.68,0.57,1.01c0.32,0.47,0.7,0.91,1.13,1.32c0.31-0.27,0.6-0.48,0.88-0.68c-0.5-0.78-0.91-1.61-1.24-2.48
				L30.29,25.66z"/>
		</g>
		<g>
			<path class="st0" d="M33.45,16.39c-0.02,0.01-0.04,0.03-0.07,0.04c0.11,0.07,0.22,0.14,0.33,0.19c0.02-0.15,0.04-0.29,0.06-0.43
				c-0.06,0.03-0.11,0.06-0.17,0.09C33.55,16.32,33.5,16.36,33.45,16.39z"/>
			<path class="st0" d="M33.71,16.76c-0.02,0-0.04,0-0.06-0.01c-0.12-0.06-0.24-0.13-0.35-0.21c-0.04-0.03-0.06-0.07-0.06-0.12
				c0-0.05,0.03-0.09,0.08-0.11c0.02-0.01,0.03-0.02,0.05-0.03c0.06-0.04,0.11-0.08,0.17-0.11c0.03-0.02,0.07-0.04,0.1-0.06
				l0.06-0.03c0.04-0.03,0.1-0.02,0.14,0.01c0.04,0.03,0.06,0.08,0.06,0.13c-0.02,0.14-0.04,0.28-0.06,0.43
				c-0.01,0.04-0.03,0.08-0.07,0.1C33.76,16.76,33.74,16.76,33.71,16.76z"/>
		</g>
		<g>
			<path class="st0" d="M36.39,16.89c-0.02,0-0.04,0-0.06-0.01c-0.03-0.02-0.06-0.04-0.07-0.08l-0.47-1.41
				c-0.01-0.04-0.01-0.07,0.01-0.11c0.02-0.03,0.05-0.06,0.08-0.07c0.22-0.05,0.44-0.1,0.66-0.15c0.03,0,0.06-0.01,0.09-0.01
				c0.02,0,0.04,0,0.06-0.01c0.04-0.01,0.08,0.01,0.11,0.03c0.29,0.27,0.57,0.55,0.84,0.86c0.05,0.05,0.04,0.13-0.01,0.18
				c-0.33,0.33-0.74,0.59-1.21,0.76C36.42,16.89,36.4,16.89,36.39,16.89z M36.09,15.44l0.38,1.14c0.33-0.14,0.63-0.33,0.89-0.56
				c-0.22-0.25-0.45-0.48-0.69-0.7c0,0-0.01,0-0.01,0c-0.02,0-0.04,0-0.06,0.01C36.42,15.36,36.25,15.4,36.09,15.44z"/>
		</g>
		<g>
			<path class="st0" d="M35.21,17.11c-0.29,0-0.57-0.04-0.87-0.12c-0.06-0.02-0.11-0.08-0.1-0.14c0.03-0.34,0.09-0.69,0.16-1.05
				c0.01-0.04,0.03-0.07,0.07-0.09c0.05-0.03,0.1-0.05,0.14-0.07c0.21-0.09,0.42-0.16,0.63-0.23c0.03-0.01,0.07-0.01,0.1,0.01
				c0.03,0.02,0.06,0.04,0.07,0.08l0.47,1.4c0.01,0.04,0.01,0.08-0.01,0.11c-0.02,0.03-0.05,0.06-0.09,0.06
				C35.54,17.1,35.36,17.11,35.21,17.11z M34.51,16.77c0.24,0.05,0.47,0.08,0.7,0.08c0.11,0,0.22-0.01,0.36-0.02l-0.38-1.12
				c-0.16,0.06-0.32,0.12-0.48,0.18c-0.02,0.01-0.05,0.02-0.07,0.03C34.58,16.21,34.54,16.49,34.51,16.77z"/>
		</g>
		<g>
			<path class="st0" d="M37.31,30.87c-0.01,0-0.02,0-0.03,0c-0.01,0-0.05,0-0.06,0c-0.03,0-0.07-0.01-0.1-0.02
				c-1.15-0.7-2.21-1.68-3.07-2.84c-0.02-0.03-0.03-0.07-0.02-0.1c0.01-0.04,0.03-0.07,0.06-0.09c0.58-0.35,1.19-0.68,1.82-0.96
				c0.06-0.03,0.14,0,0.17,0.06c0.52,1,1.11,1.91,1.76,2.72c0.04,0.04,0.04,0.11,0.01,0.16c-0.19,0.3-0.33,0.63-0.42,0.99
				C37.43,30.83,37.37,30.87,37.31,30.87z M34.36,27.96c0.81,1.07,1.79,1.97,2.85,2.62c0.09-0.31,0.21-0.6,0.37-0.86
				c-0.61-0.77-1.18-1.64-1.67-2.58C35.38,27.39,34.86,27.66,34.36,27.96z"/>
		</g>
		<g>
			<path class="st0" d="M41.43,21.72c-0.06,0-0.11-0.04-0.13-0.09c-0.28-0.79-0.6-1.56-0.96-2.29c-0.02-0.03-0.02-0.07-0.01-0.1
				c0.01-0.03,0.04-0.06,0.07-0.08c0.67-0.3,1.29-0.62,1.87-0.97c0.06-0.04,0.14-0.02,0.18,0.04c0.54,0.81,1,1.7,1.35,2.66
				c0.01,0.03,0.01,0.07-0.01,0.11c-0.02,0.03-0.05,0.06-0.08,0.07l-2.24,0.65C41.46,21.72,41.44,21.72,41.43,21.72z M40.64,19.35
				c0.33,0.67,0.62,1.37,0.87,2.08l1.98-0.58c-0.32-0.85-0.72-1.64-1.2-2.36C41.79,18.79,41.23,19.08,40.64,19.35z"/>
		</g>
		<g>
			<path class="st0" d="M31.12,20.8C31.12,20.8,31.12,20.8,31.12,20.8c-0.35-0.01-0.71-0.03-1.1-0.07c-0.04,0-0.08-0.03-0.1-0.06
				c-0.02-0.03-0.03-0.08-0.01-0.11c0.31-0.9,0.79-1.75,1.45-2.53c0.04-0.05,0.11-0.06,0.16-0.03c0.05,0.03,0.08,0.09,0.07,0.15
				c-0.21,0.82-0.32,1.68-0.33,2.53c0,0.04-0.02,0.07-0.04,0.09C31.19,20.79,31.15,20.8,31.12,20.8z M30.21,20.49
				c0.27,0.03,0.53,0.04,0.77,0.05c0.01-0.63,0.08-1.25,0.2-1.87C30.78,19.24,30.45,19.85,30.21,20.49z"/>
		</g>
		<g>
			<path class="st0" d="M31.79,20.8c-0.04,0-0.07-0.01-0.09-0.04c-0.03-0.03-0.04-0.06-0.04-0.1c0.01-1.3,0.26-2.52,0.72-3.65
				c0.01-0.02,0.02-0.03,0.03-0.05c0.07-0.06,0.15-0.12,0.22-0.18l0.08-0.06c0.05-0.04,0.11-0.04,0.16,0
				c0.28,0.22,0.56,0.37,0.83,0.49c0.05,0.02,0.09,0.07,0.08,0.13c-0.01,0.22-0.02,0.44-0.02,0.67c0,0.79,0.07,1.61,0.2,2.46
				c0.01,0.04,0,0.07-0.02,0.1c-0.02,0.03-0.05,0.05-0.09,0.05C33.14,20.73,32.45,20.79,31.79,20.8
				C31.79,20.8,31.79,20.8,31.79,20.8z M32.61,17.15c-0.43,1.04-0.66,2.18-0.69,3.38c0.56-0.02,1.15-0.07,1.76-0.15
				c-0.12-0.81-0.18-1.61-0.18-2.36c0-0.2,0-0.4,0.01-0.59c-0.24-0.11-0.48-0.24-0.72-0.42l0,0C32.74,17.05,32.67,17.1,32.61,17.15z
				"/>
		</g>
		<g>
			<path class="st0" d="M40.93,30.43c-0.06,0-0.11-0.03-0.13-0.09l-0.54-1.61c-0.01-0.04-0.01-0.08,0.01-0.11
				c0.02-0.03,0.05-0.06,0.09-0.06c0.56-0.11,1.01-0.1,1.53,0.03c0.06,0.01,0.11,0.07,0.1,0.14c-0.03,0.44-0.1,0.87-0.18,1.31
				c-0.01,0.05-0.05,0.09-0.09,0.1c-0.02,0.01-0.04,0.02-0.06,0.02l-0.05,0.02c-0.01,0-0.01,0-0.02,0.01
				c-0.2,0.09-0.4,0.17-0.61,0.24C40.96,30.43,40.94,30.43,40.93,30.43z M40.56,28.79l0.45,1.34c0.16-0.06,0.33-0.12,0.48-0.19
				c0.01,0,0.02-0.01,0.02-0.01l0.02-0.01c0.01,0,0.01-0.01,0.02-0.01c0.07-0.37,0.12-0.73,0.15-1.1
				C41.32,28.73,40.98,28.72,40.56,28.79z"/>
		</g>
		<g>
			<path class="st0" d="M39.54,30.78c-0.03,0-0.07-0.01-0.1-0.04c-0.35-0.32-0.66-0.63-0.95-0.97c-0.04-0.05-0.04-0.12,0-0.17
				c0.33-0.37,0.73-0.65,1.2-0.85c0.04-0.01,0.07-0.01,0.11,0c0.03,0.02,0.06,0.04,0.07,0.08l0.54,1.61
				c0.01,0.03,0.01,0.07-0.01,0.1c-0.02,0.03-0.05,0.06-0.08,0.07c-0.05,0.01-0.1,0.02-0.15,0.03c-0.03,0.01-0.07,0.01-0.1,0.02
				c-0.13,0.03-0.26,0.06-0.38,0.08c-0.01,0-0.03,0-0.04,0l-0.08,0.02C39.57,30.78,39.55,30.78,39.54,30.78z M38.78,29.69
				c0.24,0.28,0.51,0.54,0.8,0.81l0.06-0.01c0.01,0,0.03,0,0.04,0c0.1-0.02,0.22-0.04,0.34-0.07c0.03-0.01,0.06-0.02,0.1-0.02
				l-0.45-1.33C39.33,29.22,39.03,29.43,38.78,29.69z"/>
		</g>
		<g>
			<path class="st0" d="M35.68,30.59c-0.01,0-0.02,0-0.03,0c-1.13-0.3-2.15-0.8-3.04-1.49c-0.03-0.03-0.05-0.06-0.05-0.1
				c0-0.04,0.02-0.08,0.05-0.1c0.3-0.25,0.6-0.49,0.94-0.71c0.06-0.04,0.14-0.03,0.18,0.03c0.58,0.79,1.27,1.51,2.04,2.14
				c0.05,0.04,0.06,0.11,0.03,0.16C35.77,30.56,35.72,30.59,35.68,30.59z M32.89,28.98c0.67,0.49,1.41,0.88,2.21,1.16
				c-0.56-0.51-1.08-1.07-1.53-1.67C33.34,28.63,33.11,28.8,32.89,28.98z"/>
		</g>
		<g>
			<path class="st0" d="M38.11,30.9H38c-0.04,0-0.08-0.02-0.11-0.05c-0.02-0.03-0.03-0.08-0.02-0.12c0.06-0.19,0.13-0.37,0.22-0.53
				c0.02-0.04,0.06-0.07,0.1-0.07c0.04-0.01,0.09,0.01,0.12,0.04c0.11,0.12,0.22,0.24,0.34,0.35l0.12,0.13
				c0.04,0.04,0.05,0.09,0.03,0.14c-0.02,0.05-0.06,0.08-0.12,0.09C38.49,30.89,38.3,30.9,38.11,30.9L38.11,30.9z M38.24,30.49
				c-0.02,0.05-0.04,0.09-0.06,0.14c0.06,0,0.12,0,0.19-0.01C38.33,30.58,38.28,30.54,38.24,30.49z"/>
		</g>
		<g>
			<path class="st0" d="M39.18,25.22c-0.06,0-0.11-0.03-0.13-0.09l-0.65-1.96c-0.01-0.04-0.01-0.07,0.01-0.1
				c0.02-0.03,0.05-0.06,0.08-0.07l2.48-0.72c0.07-0.02,0.14,0.02,0.16,0.09c0.23,0.73,0.42,1.46,0.56,2.16
				c0.01,0.04,0,0.07-0.02,0.1c-0.02,0.03-0.05,0.05-0.09,0.05c-0.73,0.12-1.52,0.3-2.36,0.54C39.2,25.22,39.19,25.22,39.18,25.22z
				 M38.7,23.22l0.57,1.71c0.75-0.2,1.47-0.37,2.13-0.48c-0.12-0.61-0.29-1.23-0.48-1.87L38.7,23.22z"/>
		</g>
		<g>
			<path class="st0" d="M40.17,28.18c-0.06,0-0.11-0.04-0.13-0.09l-0.78-2.32c-0.01-0.03-0.01-0.07,0.01-0.1
				c0.02-0.03,0.05-0.06,0.08-0.07c0.74-0.21,1.51-0.38,2.29-0.52c0.04,0,0.07,0,0.1,0.02c0.03,0.02,0.05,0.05,0.05,0.09
				c0.15,0.91,0.22,1.78,0.22,2.58c0,0.05,0,0.09,0,0.13c0,0.04,0,0.08,0,0.12c0,0.04-0.02,0.08-0.05,0.1
				c-0.03,0.02-0.07,0.04-0.11,0.03c-0.53-0.1-0.96-0.12-1.66,0.02C40.19,28.18,40.18,28.18,40.17,28.18z M39.57,25.82l0.69,2.08
				c0.61-0.12,1.02-0.11,1.5-0.03c0-0.03,0-0.06,0-0.1c0-0.75-0.07-1.56-0.19-2.41C40.89,25.48,40.21,25.64,39.57,25.82z"/>
		</g>
		<g>
			<path class="st0" d="M38.17,29.3C38.17,29.3,38.17,29.3,38.17,29.3c-0.04,0-0.08-0.02-0.1-0.05c-0.59-0.76-1.13-1.6-1.6-2.49
				c-0.02-0.03-0.02-0.07-0.01-0.11c0.01-0.04,0.04-0.06,0.07-0.08c0.7-0.29,1.44-0.56,2.18-0.79c0.07-0.02,0.14,0.01,0.17,0.08
				l0.78,2.34c0.02,0.07-0.01,0.14-0.08,0.17c-0.51,0.21-0.95,0.51-1.31,0.89C38.24,29.29,38.21,29.3,38.17,29.3z M36.77,26.76
				c0.42,0.79,0.9,1.53,1.42,2.2c0.34-0.33,0.73-0.6,1.18-0.8l-0.7-2.1C38.02,26.28,37.38,26.51,36.77,26.76z"/>
		</g>
		<g>
			<path class="st0" d="M36.28,26.24c-0.05,0-0.1-0.03-0.12-0.08c-0.33-0.68-0.62-1.38-0.87-2.09c-0.01-0.04-0.01-0.07,0.01-0.1
				c0.02-0.03,0.05-0.06,0.08-0.07l2.46-0.71c0.07-0.02,0.14,0.02,0.16,0.09l0.66,1.97c0.01,0.03,0.01,0.07-0.01,0.1
				c-0.02,0.03-0.04,0.06-0.08,0.06c-0.8,0.25-1.55,0.52-2.24,0.82C36.32,26.24,36.3,26.24,36.28,26.24z M35.59,24.12
				c0.22,0.62,0.48,1.23,0.76,1.82c0.63-0.27,1.31-0.51,2.02-0.74l-0.58-1.72L35.59,24.12z"/>
		</g>
		<g>
			<path class="st0" d="M33.79,27.5c-0.04,0-0.09-0.02-0.11-0.06c-0.51-0.78-0.94-1.63-1.27-2.53c-0.01-0.03-0.01-0.07,0.01-0.11
				c0.02-0.03,0.05-0.06,0.08-0.07l2.24-0.65c0.07-0.02,0.14,0.02,0.16,0.08c0.25,0.71,0.55,1.43,0.89,2.14
				c0.01,0.03,0.02,0.07,0.01,0.1c-0.01,0.03-0.04,0.06-0.07,0.08c-0.65,0.3-1.28,0.63-1.86,0.99C33.84,27.5,33.81,27.5,33.79,27.5z
				 M32.71,24.95c0.3,0.79,0.68,1.54,1.12,2.23c0.53-0.32,1.08-0.61,1.66-0.88c-0.3-0.63-0.57-1.28-0.8-1.92L32.71,24.95z"/>
		</g>
		<g>
			<path class="st0" d="M42.22,24.58c-0.06,0-0.12-0.04-0.13-0.11c-0.14-0.7-0.33-1.44-0.57-2.21c-0.01-0.03-0.01-0.07,0.01-0.1
				c0.02-0.03,0.05-0.05,0.08-0.07l2.24-0.65c0.07-0.02,0.14,0.02,0.17,0.09c0.28,0.9,0.45,1.81,0.51,2.71
				c0,0.04-0.01,0.07-0.03,0.1c-0.02,0.03-0.06,0.04-0.1,0.04c-0.7,0.02-1.43,0.08-2.16,0.19C42.23,24.58,42.22,24.58,42.22,24.58z
				 M41.81,22.32c0.21,0.69,0.38,1.35,0.51,1.98c0.65-0.09,1.29-0.15,1.92-0.17c-0.06-0.79-0.22-1.59-0.45-2.39L41.81,22.32z"/>
		</g>
		<g>
			<path class="st0" d="M43.64,29.01c-0.03,0-0.06-0.01-0.09-0.03c-0.31-0.26-0.66-0.47-1.05-0.62c-0.05-0.02-0.09-0.07-0.08-0.13
				l0-0.11c0.01-0.11,0.01-0.23,0.01-0.35c0-0.82-0.08-1.71-0.23-2.65c-0.01-0.04,0-0.07,0.02-0.1c0.02-0.03,0.05-0.05,0.09-0.05
				c0.73-0.1,1.43-0.16,2.09-0.18c0.03,0,0.07,0.01,0.1,0.04c0.03,0.03,0.04,0.06,0.04,0.1c0,0.03,0.01,0.05,0.01,0.07
				c0,1.38-0.27,2.74-0.79,3.93c-0.02,0.04-0.05,0.07-0.09,0.08C43.66,29.01,43.65,29.01,43.64,29.01z M42.69,28.14
				c0.33,0.13,0.63,0.31,0.9,0.52c0.45-1.1,0.69-2.34,0.7-3.6c-0.57,0.02-1.18,0.07-1.8,0.15c0.14,0.91,0.21,1.77,0.21,2.55
				c0,0.12,0,0.24-0.01,0.36L42.69,28.14z"/>
		</g>
		<g>
			<path class="st0" d="M32.32,24.36c-0.06,0-0.11-0.04-0.13-0.09c-0.3-0.97-0.47-1.95-0.52-2.92c0-0.04,0.01-0.07,0.04-0.1
				c0.02-0.03,0.06-0.04,0.09-0.04c0.68-0.02,1.39-0.08,2.13-0.18c0.07-0.01,0.14,0.04,0.15,0.11c0.15,0.78,0.35,1.58,0.61,2.4
				c0.01,0.03,0.01,0.07-0.01,0.1c-0.02,0.03-0.05,0.06-0.08,0.06l-2.24,0.65C32.35,24.36,32.34,24.36,32.32,24.36z M31.95,21.47
				c0.05,0.86,0.21,1.73,0.46,2.6l1.98-0.58c-0.23-0.74-0.42-1.47-0.56-2.18C33.19,21.4,32.56,21.45,31.95,21.47z"/>
		</g>
		<g>
			<path class="st0" d="M35.21,23.53c-0.06,0-0.11-0.04-0.13-0.09c-0.25-0.79-0.45-1.58-0.6-2.35c-0.01-0.04,0-0.07,0.02-0.1
				c0.02-0.03,0.05-0.05,0.09-0.06c0.75-0.13,1.53-0.3,2.33-0.51c0.07-0.02,0.14,0.02,0.16,0.09l0.72,2.14
				c0.01,0.03,0.01,0.07-0.01,0.1c-0.02,0.03-0.05,0.06-0.08,0.07l-2.46,0.72C35.23,23.53,35.22,23.53,35.21,23.53z M34.77,21.17
				c0.13,0.68,0.31,1.37,0.52,2.06l2.21-0.64l-0.63-1.89C36.15,20.89,35.45,21.05,34.77,21.17z"/>
		</g>
		<g>
			<path class="st0" d="M38.31,22.63c-0.06,0-0.11-0.04-0.13-0.09l-0.72-2.14c-0.01-0.03-0.01-0.07,0.01-0.1
				c0.02-0.03,0.05-0.05,0.08-0.07c0.74-0.22,1.49-0.49,2.24-0.8c0.07-0.03,0.14,0,0.17,0.06c0.34,0.69,0.66,1.45,0.94,2.24
				c0.01,0.04,0.01,0.07-0.01,0.1c-0.02,0.03-0.05,0.06-0.08,0.07l-2.47,0.72C38.34,22.63,38.33,22.63,38.31,22.63z M37.77,20.44
				l0.63,1.89l2.22-0.64c-0.25-0.69-0.53-1.35-0.83-1.97C39.11,19.99,38.43,20.24,37.77,20.44z"/>
		</g>
		<g>
			<path class="st0" d="M40.16,18.82c-0.05,0-0.09-0.03-0.12-0.07c-0.52-0.98-1.1-1.86-1.73-2.63c-0.04-0.05-0.04-0.11,0-0.16
				c0.22-0.31,0.38-0.64,0.48-0.98c0.01-0.04,0.04-0.07,0.08-0.08c0.04-0.02,0.08-0.01,0.12,0.01c1.14,0.68,2.2,1.64,3.07,2.78
				c0.02,0.03,0.03,0.07,0.02,0.11c-0.01,0.04-0.03,0.07-0.06,0.09c-0.54,0.32-1.15,0.64-1.81,0.93
				C40.2,18.81,40.18,18.82,40.16,18.82z M38.59,16.03c0.58,0.74,1.13,1.57,1.63,2.49c0.55-0.26,1.07-0.52,1.54-0.79
				c-0.79-1.01-1.74-1.88-2.76-2.51C38.9,15.49,38.76,15.77,38.59,16.03z"/>
		</g>
		<g>
			<path class="st0" d="M34.5,20.53c-0.03,0-0.06-0.01-0.08-0.03c-0.03-0.02-0.05-0.05-0.05-0.09c-0.13-0.85-0.19-1.66-0.19-2.4
				c0-0.08,0-0.17,0.01-0.25c0-0.07,0-0.15,0-0.22c0-0.04,0.02-0.08,0.05-0.1c0.03-0.03,0.07-0.04,0.11-0.03
				c0.49,0.11,0.97,0.14,1.59,0.02c0.07-0.01,0.13,0.03,0.15,0.09l0.78,2.33c0.01,0.03,0.01,0.07-0.01,0.11
				c-0.02,0.03-0.05,0.06-0.08,0.07c-0.74,0.2-1.49,0.37-2.25,0.5C34.51,20.53,34.51,20.53,34.5,20.53z M34.45,17.71
				c0,0.02,0,0.05,0,0.07c0,0.08,0,0.16,0,0.24c0,0.69,0.06,1.43,0.17,2.22c0.66-0.12,1.32-0.26,1.96-0.43l-0.7-2.09
				C35.34,17.81,34.9,17.8,34.45,17.71z"/>
		</g>
		<g>
			<path class="st0" d="M37.38,19.85c-0.06,0-0.11-0.04-0.13-0.09l-0.78-2.33c-0.02-0.07,0.01-0.14,0.08-0.17
				c0.51-0.19,0.96-0.47,1.32-0.82c0.03-0.03,0.06-0.04,0.1-0.04c0.04,0,0.07,0.02,0.09,0.05c0.58,0.73,1.11,1.55,1.58,2.43
				c0.02,0.03,0.02,0.07,0.01,0.11c-0.01,0.04-0.04,0.06-0.07,0.08c-0.72,0.29-1.45,0.56-2.17,0.77
				C37.41,19.85,37.39,19.85,37.38,19.85z M36.77,17.47l0.7,2.08c0.63-0.19,1.27-0.42,1.89-0.67c-0.42-0.77-0.89-1.49-1.4-2.14
				C37.62,17.05,37.22,17.29,36.77,17.47z"/>
		</g>
		<g>
			<path class="st0" d="M38.91,15.06c0.03,0,0.07,0,0.1,0.01c-0.03-0.02-0.06-0.04-0.09-0.06C38.92,15.03,38.91,15.05,38.91,15.06z"
				/>
			<path class="st0" d="M39.01,15.2c-0.01,0-0.01,0-0.02,0c-0.06-0.01-0.16,0-0.2-0.06c-0.02-0.04-0.03-0.08-0.01-0.13
				c0.01-0.03,0.01-0.04,0.02-0.05c0.02-0.04,0.05-0.06,0.09-0.08c0.04-0.01,0.08,0,0.11,0.02c0.01,0.01,0.03,0.02,0.04,0.03
				l0.04,0.03c0.05,0.03,0.07,0.1,0.05,0.16C39.11,15.17,39.06,15.2,39.01,15.2z"/>
		</g>
		<g>
			<path class="st0" d="M42.4,29.89c-0.03,0-0.05-0.01-0.08-0.02c-0.04-0.03-0.07-0.08-0.06-0.13c0.04-0.26,0.08-0.54,0.1-0.82
				c0-0.04,0.03-0.08,0.07-0.1c0.04-0.02,0.08-0.02,0.12,0c0.21,0.1,0.42,0.23,0.63,0.4c0.03,0.03,0.05,0.07,0.05,0.11
				c0,0.04-0.02,0.08-0.06,0.11c-0.24,0.17-0.49,0.31-0.73,0.45C42.45,29.89,42.42,29.89,42.4,29.89z M42.62,29.15
				c-0.01,0.12-0.03,0.24-0.05,0.36c0.11-0.06,0.21-0.13,0.31-0.19C42.8,29.25,42.71,29.2,42.62,29.15z"/>
		</g>
		<g>
			<path class="st0" d="M40.93,30.43c-0.06,0-0.11-0.03-0.13-0.09l-0.54-1.61c-0.01-0.04-0.01-0.08,0.01-0.11
				c0.02-0.03,0.05-0.06,0.09-0.06c0.56-0.11,1.01-0.1,1.53,0.03c0.06,0.01,0.11,0.07,0.1,0.14c-0.03,0.44-0.1,0.87-0.18,1.31
				c-0.01,0.05-0.05,0.09-0.09,0.1c-0.02,0.01-0.04,0.02-0.06,0.02l-0.05,0.02c-0.01,0-0.01,0-0.02,0.01
				c-0.2,0.09-0.4,0.17-0.61,0.24C40.96,30.43,40.94,30.43,40.93,30.43z M40.56,28.79l0.45,1.34c0.16-0.06,0.33-0.12,0.48-0.19
				c0.01,0,0.02-0.01,0.02-0.01l0.02-0.01c0.01,0,0.01-0.01,0.02-0.01c0.07-0.37,0.12-0.73,0.15-1.1
				C41.32,28.73,40.98,28.72,40.56,28.79z"/>
		</g>
		<g>
			<path class="st0" d="M42.52,17.54c-0.04,0-0.08-0.02-0.11-0.05c-0.55-0.73-1.19-1.41-1.92-2.01c-0.05-0.04-0.06-0.11-0.03-0.17
				c0.03-0.06,0.09-0.08,0.15-0.07c1.05,0.31,2.01,0.78,2.86,1.41c0.03,0.02,0.05,0.06,0.05,0.1c0,0.04-0.02,0.08-0.05,0.11
				c-0.32,0.26-0.6,0.46-0.89,0.65C42.57,17.53,42.55,17.54,42.52,17.54z M41.16,15.71c0.51,0.47,0.98,0.98,1.39,1.52
				c0.2-0.14,0.41-0.29,0.63-0.46C42.57,16.33,41.89,15.97,41.16,15.71z"/>
		</g>
		<g>
			<path class="st0" d="M46.45,24.47c-0.01,0-0.01,0-0.02,0c-0.43-0.06-0.88-0.09-1.38-0.09c-0.07,0-0.13-0.06-0.13-0.13
				c-0.06-0.94-0.24-1.89-0.52-2.83c-0.01-0.03-0.01-0.07,0.01-0.1c0.02-0.03,0.05-0.05,0.08-0.06l1.77-0.51
				c0.03-0.01,0.07-0.01,0.1,0.01c0.03,0.02,0.06,0.04,0.06,0.08c0.34,1.17,0.39,2.35,0.16,3.53
				C46.57,24.43,46.51,24.47,46.45,24.47z M45.18,24.12c0.41,0.01,0.8,0.03,1.17,0.07c0.19-1.05,0.14-2.11-0.14-3.15l-1.51,0.44
				C44.95,22.35,45.11,23.24,45.18,24.12z"/>
		</g>
		<g>
			<path class="st0" d="M40.16,18.82c-0.05,0-0.09-0.03-0.12-0.07c-0.52-0.98-1.1-1.86-1.73-2.63c-0.04-0.05-0.04-0.11,0-0.16
				c0.21-0.29,0.36-0.61,0.47-0.93c0.03-0.09,0.16-0.1,0.25-0.08c0.02,0,0.04,0.01,0.05,0.02c1.12,0.68,2.15,1.62,2.98,2.72
				c0.02,0.03,0.03,0.07,0.02,0.11c-0.01,0.04-0.03,0.07-0.06,0.09c-0.54,0.32-1.15,0.64-1.81,0.93
				C40.2,18.81,40.18,18.82,40.16,18.82z M38.59,16.03c0.58,0.74,1.13,1.57,1.63,2.49c0.55-0.26,1.07-0.52,1.54-0.79
				c-0.78-1.01-1.73-1.87-2.76-2.5C38.89,15.5,38.76,15.77,38.59,16.03z"/>
		</g>
		<g>
			<path class="st0" d="M38.11,30.9H38c-0.04,0-0.08-0.02-0.11-0.05c-0.02-0.03-0.03-0.08-0.02-0.12c0.06-0.19,0.13-0.37,0.22-0.53
				c0.02-0.04,0.06-0.07,0.1-0.07c0.04-0.01,0.09,0.01,0.12,0.04c0.11,0.12,0.22,0.24,0.34,0.35l0.12,0.13
				c0.04,0.04,0.05,0.09,0.03,0.14c-0.02,0.05-0.06,0.08-0.12,0.09C38.49,30.89,38.3,30.9,38.11,30.9L38.11,30.9z M38.24,30.49
				c-0.02,0.05-0.04,0.09-0.06,0.14c0.06,0,0.12,0,0.19-0.01C38.33,30.58,38.28,30.54,38.24,30.49z"/>
		</g>
		<g>
			<path class="st0" d="M44.32,20.88c-0.05,0-0.11-0.03-0.12-0.09c-0.36-0.99-0.83-1.92-1.4-2.77c-0.02-0.03-0.03-0.07-0.02-0.1
				c0.01-0.04,0.03-0.07,0.06-0.09c0.35-0.23,0.68-0.47,1.02-0.75c0.05-0.04,0.12-0.04,0.17,0c0.98,0.86,1.71,1.9,2.18,3.1
				c0.01,0.04,0.01,0.07,0,0.11c-0.02,0.03-0.05,0.06-0.08,0.07l-1.76,0.51C44.35,20.88,44.33,20.88,44.32,20.88z M43.09,17.99
				c0.53,0.8,0.97,1.68,1.31,2.6l1.5-0.43c-0.44-1.07-1.1-2.01-1.97-2.79C43.66,17.59,43.38,17.79,43.09,17.99z"/>
		</g>
		<g>
			<path class="st0" d="M44.68,28.06c-0.02,0-0.04,0-0.06-0.02c-0.05-0.03-0.08-0.09-0.06-0.15c0.27-0.93,0.4-1.91,0.4-2.89
				c0-0.04-0.01-0.06-0.01-0.08c0-0.04,0.02-0.07,0.04-0.09c0.03-0.02,0.06-0.05,0.1-0.04c0.38,0,0.77,0.03,1.22,0.07
				c0.04,0,0.08,0.03,0.1,0.06c0.02,0.03,0.03,0.07,0.02,0.11c-0.33,1.11-0.88,2.11-1.64,2.98C44.75,28.04,44.72,28.06,44.68,28.06z
				 M45.22,25.05c0,0.78-0.09,1.56-0.26,2.31c0.51-0.68,0.9-1.44,1.16-2.26C45.79,25.08,45.5,25.06,45.22,25.05z"/>
		</g>
		<g>
			<path class="st0" d="M33.78,16.2c-0.06,0.03-0.11,0.06-0.17,0.09c-0.06,0.03-0.11,0.07-0.16,0.1c-0.02,0.01-0.04,0.03-0.07,0.04
				c0.11,0.07,0.22,0.14,0.33,0.19C33.73,16.49,33.75,16.34,33.78,16.2z"/>
			<path class="st0" d="M33.71,16.76c-0.02,0-0.04,0-0.06-0.01c-0.12-0.06-0.24-0.13-0.35-0.21c-0.04-0.03-0.06-0.07-0.06-0.12
				c0-0.05,0.03-0.09,0.08-0.11c0.02-0.01,0.03-0.02,0.05-0.03c0.06-0.04,0.11-0.08,0.17-0.11c0.03-0.02,0.07-0.04,0.1-0.06
				l0.06-0.03c0.04-0.03,0.1-0.02,0.14,0.01c0.04,0.03,0.06,0.08,0.06,0.13c-0.02,0.14-0.04,0.28-0.06,0.43
				c-0.01,0.04-0.03,0.08-0.07,0.1C33.76,16.76,33.74,16.76,33.71,16.76z"/>
		</g>
		<g>
			<path class="st0" d="M31.79,20.8c-0.04,0-0.07-0.01-0.09-0.04c-0.03-0.03-0.04-0.06-0.04-0.1c0.01-1.3,0.26-2.52,0.72-3.65
				c0.01-0.02,0.02-0.03,0.03-0.05c0.07-0.06,0.15-0.12,0.22-0.18l0.08-0.06c0.05-0.04,0.11-0.04,0.16,0
				c0.28,0.22,0.56,0.37,0.83,0.49c0.05,0.02,0.09,0.07,0.08,0.13c-0.01,0.22-0.02,0.44-0.02,0.67c0,0.79,0.07,1.61,0.2,2.46
				c0.01,0.04,0,0.07-0.02,0.1c-0.02,0.03-0.05,0.05-0.09,0.05C33.14,20.73,32.45,20.79,31.79,20.8
				C31.79,20.8,31.79,20.8,31.79,20.8z M32.61,17.15c-0.43,1.04-0.66,2.18-0.69,3.38c0.56-0.02,1.15-0.07,1.76-0.15
				c-0.12-0.81-0.18-1.61-0.18-2.36c0-0.2,0-0.4,0.01-0.59c-0.24-0.11-0.48-0.24-0.72-0.42l0,0C32.74,17.05,32.67,17.1,32.61,17.15z
				"/>
		</g>
		<g>
			<path class="st0" d="M35.21,17.11c-0.29,0-0.57-0.04-0.87-0.12c-0.06-0.02-0.11-0.08-0.1-0.14c0.03-0.34,0.09-0.69,0.16-1.05
				c0.01-0.04,0.03-0.07,0.07-0.09c0.05-0.03,0.1-0.05,0.14-0.07c0.21-0.09,0.42-0.16,0.63-0.23c0.03-0.01,0.07-0.01,0.1,0.01
				c0.03,0.02,0.06,0.04,0.07,0.08l0.47,1.4c0.01,0.04,0.01,0.08-0.01,0.11c-0.02,0.03-0.05,0.06-0.09,0.06
				C35.54,17.1,35.36,17.11,35.21,17.11z M34.51,16.77c0.24,0.05,0.47,0.08,0.7,0.08c0.11,0,0.22-0.01,0.36-0.02l-0.38-1.12
				c-0.16,0.06-0.32,0.12-0.48,0.18c-0.02,0.01-0.05,0.02-0.07,0.03C34.58,16.21,34.54,16.49,34.51,16.77z"/>
		</g>
		<g>
			<path class="st0" d="M36.39,16.89c-0.02,0-0.04,0-0.06-0.01c-0.03-0.02-0.06-0.04-0.07-0.08l-0.47-1.41
				c-0.01-0.04-0.01-0.07,0.01-0.11c0.02-0.03,0.05-0.06,0.08-0.07c0.22-0.05,0.44-0.1,0.66-0.15c0.03,0,0.06-0.01,0.09-0.01
				c0.02,0,0.04,0,0.06-0.01c0.04-0.01,0.08,0.01,0.11,0.03c0.29,0.27,0.57,0.55,0.84,0.86c0.05,0.05,0.04,0.13-0.01,0.18
				c-0.33,0.33-0.74,0.59-1.21,0.76C36.42,16.89,36.4,16.89,36.39,16.89z M36.09,15.44l0.38,1.14c0.33-0.14,0.63-0.33,0.89-0.56
				c-0.22-0.25-0.45-0.48-0.69-0.7c0,0-0.01,0-0.01,0c-0.02,0-0.04,0-0.06,0.01C36.42,15.36,36.25,15.4,36.09,15.44z"/>
		</g>
		<g>
			<path class="st0" d="M31.12,20.8C31.12,20.8,31.12,20.8,31.12,20.8c-0.35-0.01-0.71-0.03-1.1-0.07c-0.04,0-0.08-0.03-0.1-0.06
				c-0.02-0.03-0.03-0.08-0.01-0.11c0.31-0.9,0.79-1.75,1.45-2.53c0.04-0.05,0.11-0.06,0.16-0.03c0.05,0.03,0.08,0.09,0.07,0.15
				c-0.21,0.82-0.32,1.68-0.33,2.53c0,0.04-0.02,0.07-0.04,0.09C31.19,20.79,31.15,20.8,31.12,20.8z M30.21,20.49
				c0.27,0.03,0.53,0.04,0.77,0.05c0.01-0.63,0.08-1.25,0.2-1.87C30.78,19.24,30.45,19.85,30.21,20.49z"/>
		</g>
		<g>
			<path class="st0" d="M32.16,28.68c-0.01,0-0.02,0-0.03,0c-0.02,0-0.04-0.02-0.06-0.03l0,0c-0.49-0.44-0.91-0.93-1.26-1.44
				c-0.23-0.34-0.43-0.7-0.59-1.05l-0.02-0.04c-0.01-0.03-0.03-0.06-0.04-0.09c-0.06-0.13-0.12-0.27-0.17-0.4
				c-0.01-0.03-0.02-0.06-0.01-0.09c0.01-0.05,0.05-0.09,0.09-0.1l1.78-0.52c0.07-0.02,0.14,0.02,0.16,0.08
				c0.34,0.93,0.78,1.83,1.33,2.65c0.04,0.06,0.02,0.14-0.04,0.18c-0.34,0.22-0.67,0.48-1.06,0.81
				C32.22,28.67,32.19,28.68,32.16,28.68z M30.29,25.66c0.04,0.09,0.08,0.18,0.12,0.27c0.01,0.04,0.03,0.06,0.04,0.09l0.02,0.04
				c0.15,0.34,0.35,0.68,0.57,1.01c0.32,0.47,0.7,0.91,1.13,1.32c0.31-0.27,0.6-0.48,0.88-0.68c-0.5-0.78-0.91-1.61-1.24-2.48
				L30.29,25.66z"/>
		</g>
		<g>
			<path class="st0" d="M37.31,30.87c-0.01,0-0.02,0-0.03,0c-0.01,0-0.05,0-0.06,0c-0.03,0-0.07-0.01-0.1-0.02
				c-1.15-0.7-2.21-1.68-3.07-2.84c-0.02-0.03-0.03-0.07-0.02-0.1c0.01-0.04,0.03-0.07,0.06-0.09c0.58-0.35,1.19-0.68,1.82-0.96
				c0.06-0.03,0.14,0,0.17,0.06c0.52,1,1.11,1.91,1.76,2.72c0.04,0.04,0.04,0.11,0.01,0.16c-0.19,0.3-0.33,0.63-0.42,0.99
				C37.43,30.83,37.37,30.87,37.31,30.87z M34.36,27.96c0.81,1.07,1.79,1.97,2.85,2.62c0.09-0.31,0.21-0.6,0.37-0.86
				c-0.61-0.77-1.18-1.64-1.67-2.58C35.38,27.39,34.86,27.66,34.36,27.96z"/>
		</g>
		<g>
			<path class="st0" d="M35.68,30.59c-0.01,0-0.02,0-0.03,0c-1.13-0.3-2.15-0.8-3.04-1.49c-0.03-0.03-0.05-0.06-0.05-0.1
				c0-0.04,0.02-0.08,0.05-0.1c0.3-0.25,0.6-0.49,0.94-0.71c0.06-0.04,0.14-0.03,0.18,0.03c0.58,0.79,1.27,1.51,2.04,2.14
				c0.05,0.04,0.06,0.11,0.03,0.16C35.77,30.56,35.72,30.59,35.68,30.59z M32.89,28.98c0.67,0.49,1.41,0.88,2.21,1.16
				c-0.56-0.51-1.08-1.07-1.53-1.67C33.34,28.63,33.11,28.8,32.89,28.98z"/>
		</g>
		<g>
			<path class="st0" d="M29.9,25.07c-0.03,0-0.06-0.01-0.08-0.03c-0.03-0.02-0.05-0.06-0.05-0.09c-0.33-1.21-0.35-2.49-0.06-3.71
				c0-0.04,0.02-0.07,0.05-0.09c0.03-0.03,0.07-0.03,0.11-0.03c0.42,0.05,0.84,0.09,1.29,0.09c0.07,0,0.13,0.06,0.13,0.13
				c0.05,1.01,0.23,2.03,0.53,3.04c0.01,0.04,0.01,0.07-0.01,0.1c-0.02,0.03-0.05,0.05-0.08,0.07l-1.78,0.52
				C29.92,25.07,29.91,25.07,29.9,25.07z M29.94,21.39c-0.25,1.11-0.24,2.27,0.05,3.38l1.52-0.44c-0.28-0.95-0.44-1.91-0.5-2.85
				C30.65,21.46,30.29,21.44,29.94,21.39z"/>
		</g>
		<g>
			<path class="st0" d="M39.54,30.78c-0.03,0-0.07-0.01-0.1-0.04c-0.35-0.32-0.66-0.63-0.95-0.97c-0.04-0.05-0.04-0.12,0-0.17
				c0.33-0.37,0.73-0.65,1.2-0.85c0.04-0.01,0.07-0.01,0.11,0c0.03,0.02,0.06,0.04,0.07,0.08l0.54,1.61
				c0.01,0.03,0.01,0.07-0.01,0.1c-0.02,0.03-0.05,0.06-0.08,0.07c-0.05,0.01-0.1,0.02-0.15,0.03c-0.03,0.01-0.07,0.01-0.1,0.02
				c-0.13,0.03-0.26,0.06-0.38,0.08c-0.01,0-0.03,0-0.04,0l-0.08,0.02C39.57,30.78,39.55,30.78,39.54,30.78z M38.78,29.69
				c0.24,0.28,0.51,0.54,0.8,0.81l0.06-0.01c0.01,0,0.03,0,0.04,0c0.1-0.02,0.22-0.04,0.34-0.07c0.03-0.01,0.06-0.02,0.1-0.02
				l-0.45-1.33C39.33,29.22,39.03,29.43,38.78,29.69z"/>
		</g>
		<g>
			<path class="st0" d="M43.64,29.01c-0.03,0-0.06-0.01-0.09-0.03c-0.31-0.26-0.66-0.47-1.05-0.62c-0.05-0.02-0.09-0.07-0.08-0.13
				l0-0.11c0.01-0.11,0.01-0.23,0.01-0.35c0-0.82-0.08-1.71-0.23-2.65c-0.01-0.04,0-0.07,0.02-0.1c0.02-0.03,0.05-0.05,0.09-0.05
				c0.73-0.1,1.43-0.16,2.09-0.18c0.03,0,0.07,0.01,0.1,0.04c0.03,0.03,0.04,0.06,0.04,0.1c0,0.03,0.01,0.05,0.01,0.07
				c0,1.38-0.27,2.74-0.79,3.93c-0.02,0.04-0.05,0.07-0.09,0.08C43.66,29.01,43.65,29.01,43.64,29.01z M42.69,28.14
				c0.33,0.13,0.63,0.31,0.9,0.52c0.45-1.1,0.69-2.34,0.7-3.6c-0.57,0.02-1.18,0.07-1.8,0.15c0.14,0.91,0.21,1.77,0.21,2.55
				c0,0.12,0,0.24-0.01,0.36L42.69,28.14z"/>
		</g>
		<g>
			<path class="st0" d="M39.18,25.22c-0.06,0-0.11-0.03-0.13-0.09l-0.65-1.96c-0.01-0.04-0.01-0.07,0.01-0.1
				c0.02-0.03,0.05-0.06,0.08-0.07l2.48-0.72c0.07-0.02,0.14,0.02,0.16,0.09c0.23,0.73,0.42,1.46,0.56,2.16
				c0.01,0.04,0,0.07-0.02,0.1c-0.02,0.03-0.05,0.05-0.09,0.05c-0.73,0.12-1.52,0.3-2.36,0.54C39.2,25.22,39.19,25.22,39.18,25.22z
				 M38.7,23.22l0.57,1.71c0.75-0.2,1.47-0.37,2.13-0.48c-0.12-0.61-0.29-1.23-0.48-1.87L38.7,23.22z"/>
		</g>
		<g>
			<path class="st0" d="M38.17,29.3C38.17,29.3,38.17,29.3,38.17,29.3c-0.04,0-0.08-0.02-0.1-0.05c-0.59-0.76-1.13-1.6-1.6-2.49
				c-0.02-0.03-0.02-0.07-0.01-0.11c0.01-0.04,0.04-0.06,0.07-0.08c0.7-0.29,1.44-0.56,2.18-0.79c0.07-0.02,0.14,0.01,0.17,0.08
				l0.78,2.34c0.02,0.07-0.01,0.14-0.08,0.17c-0.51,0.21-0.95,0.51-1.31,0.89C38.24,29.29,38.21,29.3,38.17,29.3z M36.77,26.76
				c0.42,0.79,0.9,1.53,1.42,2.2c0.34-0.33,0.73-0.6,1.18-0.8l-0.7-2.1C38.02,26.28,37.38,26.51,36.77,26.76z"/>
		</g>
		<g>
			<path class="st0" d="M42.22,24.58c-0.06,0-0.12-0.04-0.13-0.11c-0.14-0.7-0.33-1.44-0.57-2.21c-0.01-0.03-0.01-0.07,0.01-0.1
				c0.02-0.03,0.05-0.05,0.08-0.07l2.24-0.65c0.07-0.02,0.14,0.02,0.17,0.09c0.28,0.9,0.45,1.81,0.51,2.71
				c0,0.04-0.01,0.07-0.03,0.1c-0.02,0.03-0.06,0.04-0.1,0.04c-0.7,0.02-1.43,0.08-2.16,0.19C42.23,24.58,42.22,24.58,42.22,24.58z
				 M41.81,22.32c0.21,0.69,0.38,1.35,0.51,1.98c0.65-0.09,1.29-0.15,1.92-0.17c-0.06-0.79-0.22-1.59-0.45-2.39L41.81,22.32z"/>
		</g>
		<g>
			<path class="st0" d="M40.17,28.18c-0.06,0-0.11-0.04-0.13-0.09l-0.78-2.32c-0.01-0.03-0.01-0.07,0.01-0.1
				c0.02-0.03,0.05-0.06,0.08-0.07c0.74-0.21,1.51-0.38,2.29-0.52c0.04,0,0.07,0,0.1,0.02c0.03,0.02,0.05,0.05,0.05,0.09
				c0.15,0.91,0.22,1.78,0.22,2.58c0,0.05,0,0.09,0,0.13c0,0.04,0,0.08,0,0.12c0,0.04-0.02,0.08-0.05,0.1
				c-0.03,0.02-0.07,0.04-0.11,0.03c-0.53-0.1-0.96-0.12-1.66,0.02C40.19,28.18,40.18,28.18,40.17,28.18z M39.57,25.82l0.69,2.08
				c0.61-0.12,1.02-0.11,1.5-0.03c0-0.03,0-0.06,0-0.1c0-0.75-0.07-1.56-0.19-2.41C40.89,25.48,40.21,25.64,39.57,25.82z"/>
		</g>
		<g>
			<path class="st0" d="M37.57,15.08c0.13,0.14,0.26,0.27,0.4,0.42c0.09-0.15,0.17-0.31,0.23-0.48c-0.16,0-0.32-0.01-0.48,0
				l0.01,0.05C37.68,15.08,37.63,15.08,37.57,15.08z"/>
			<path class="st0" d="M37.97,15.64c-0.04,0-0.07-0.02-0.1-0.04c-0.1-0.1-0.19-0.2-0.28-0.3l-0.11-0.12
				c-0.04-0.04-0.05-0.09-0.03-0.14c0.02-0.05,0.06-0.08,0.12-0.08c0.02,0,0.03,0,0.05,0c0,0,0-0.01,0.01-0.01
				c0.02-0.03,0.06-0.05,0.1-0.05c0.06,0,0.11,0,0.16,0l0.32,0c0.04,0,0.08,0.02,0.11,0.06c0.02,0.04,0.03,0.08,0.02,0.12
				c-0.07,0.19-0.15,0.35-0.24,0.51c-0.02,0.04-0.06,0.06-0.1,0.06C37.98,15.64,37.98,15.64,37.97,15.64z"/>
		</g>
		<g>
			<path class="st0" d="M37.38,19.85c-0.06,0-0.11-0.04-0.13-0.09l-0.78-2.33c-0.02-0.07,0.01-0.14,0.08-0.17
				c0.51-0.19,0.96-0.47,1.32-0.82c0.03-0.03,0.06-0.04,0.1-0.04c0.04,0,0.07,0.02,0.09,0.05c0.58,0.73,1.11,1.55,1.58,2.43
				c0.02,0.03,0.02,0.07,0.01,0.11c-0.01,0.04-0.04,0.06-0.07,0.08c-0.72,0.29-1.45,0.56-2.17,0.77
				C37.41,19.85,37.39,19.85,37.38,19.85z M36.77,17.47l0.7,2.08c0.63-0.19,1.27-0.42,1.89-0.67c-0.42-0.77-0.89-1.49-1.4-2.14
				C37.62,17.05,37.22,17.29,36.77,17.47z"/>
		</g>
		<g>
			<path class="st0" d="M41.43,21.72c-0.06,0-0.11-0.04-0.13-0.09c-0.28-0.79-0.6-1.56-0.96-2.29c-0.02-0.03-0.02-0.07-0.01-0.1
				c0.01-0.03,0.04-0.06,0.07-0.08c0.67-0.3,1.29-0.62,1.87-0.97c0.06-0.04,0.14-0.02,0.18,0.04c0.54,0.81,1,1.7,1.35,2.66
				c0.01,0.03,0.01,0.07-0.01,0.11c-0.02,0.03-0.05,0.06-0.08,0.07l-2.24,0.65C41.46,21.72,41.44,21.72,41.43,21.72z M40.64,19.35
				c0.33,0.67,0.62,1.37,0.87,2.08l1.98-0.58c-0.32-0.85-0.72-1.64-1.2-2.36C41.79,18.79,41.23,19.08,40.64,19.35z"/>
		</g>
		<g>
			<path class="st0" d="M38.31,22.63c-0.06,0-0.11-0.04-0.13-0.09l-0.72-2.14c-0.01-0.03-0.01-0.07,0.01-0.1
				c0.02-0.03,0.05-0.05,0.08-0.07c0.74-0.22,1.49-0.49,2.24-0.8c0.07-0.03,0.14,0,0.17,0.06c0.34,0.69,0.66,1.45,0.94,2.24
				c0.01,0.04,0.01,0.07-0.01,0.1c-0.02,0.03-0.05,0.06-0.08,0.07l-2.47,0.72C38.34,22.63,38.33,22.63,38.31,22.63z M37.77,20.44
				l0.63,1.89l2.22-0.64c-0.25-0.69-0.53-1.35-0.83-1.97C39.11,19.99,38.43,20.24,37.77,20.44z"/>
		</g>
		<g>
			<path class="st0" d="M35.21,23.53c-0.06,0-0.11-0.04-0.13-0.09c-0.25-0.79-0.45-1.58-0.6-2.35c-0.01-0.04,0-0.07,0.02-0.1
				c0.02-0.03,0.05-0.05,0.09-0.06c0.75-0.13,1.53-0.3,2.33-0.51c0.07-0.02,0.14,0.02,0.16,0.09l0.72,2.14
				c0.01,0.03,0.01,0.07-0.01,0.1c-0.02,0.03-0.05,0.06-0.08,0.07l-2.46,0.72C35.23,23.53,35.22,23.53,35.21,23.53z M34.77,21.17
				c0.13,0.68,0.31,1.37,0.52,2.06l2.21-0.64l-0.63-1.89C36.15,20.89,35.45,21.05,34.77,21.17z"/>
		</g>
		<g>
			<path class="st0" d="M34.5,20.53c-0.03,0-0.06-0.01-0.08-0.03c-0.03-0.02-0.05-0.05-0.05-0.09c-0.13-0.85-0.19-1.66-0.19-2.4
				c0-0.08,0-0.17,0.01-0.25c0-0.07,0-0.15,0-0.22c0-0.04,0.02-0.08,0.05-0.1c0.03-0.03,0.07-0.04,0.11-0.03
				c0.49,0.11,0.97,0.14,1.59,0.02c0.07-0.01,0.13,0.03,0.15,0.09l0.78,2.33c0.01,0.03,0.01,0.07-0.01,0.11
				c-0.02,0.03-0.05,0.06-0.08,0.07c-0.74,0.2-1.49,0.37-2.25,0.5C34.51,20.53,34.51,20.53,34.5,20.53z M34.45,17.71
				c0,0.02,0,0.05,0,0.07c0,0.08,0,0.16,0,0.24c0,0.69,0.06,1.43,0.17,2.22c0.66-0.12,1.32-0.26,1.96-0.43l-0.7-2.09
				C35.34,17.81,34.9,17.8,34.45,17.71z"/>
		</g>
		<g>
			<path class="st0" d="M32.32,24.36c-0.06,0-0.11-0.04-0.13-0.09c-0.3-0.97-0.47-1.95-0.52-2.92c0-0.04,0.01-0.07,0.04-0.1
				c0.02-0.03,0.06-0.04,0.09-0.04c0.68-0.02,1.39-0.08,2.13-0.18c0.07-0.01,0.14,0.04,0.15,0.11c0.15,0.78,0.35,1.58,0.61,2.4
				c0.01,0.03,0.01,0.07-0.01,0.1c-0.02,0.03-0.05,0.06-0.08,0.06l-2.24,0.65C32.35,24.36,32.34,24.36,32.32,24.36z M31.95,21.47
				c0.05,0.86,0.21,1.73,0.46,2.6l1.98-0.58c-0.23-0.74-0.42-1.47-0.56-2.18C33.19,21.4,32.56,21.45,31.95,21.47z"/>
		</g>
		<g>
			<path class="st0" d="M36.28,26.24c-0.05,0-0.1-0.03-0.12-0.08c-0.33-0.68-0.62-1.38-0.87-2.09c-0.01-0.04-0.01-0.07,0.01-0.1
				c0.02-0.03,0.05-0.06,0.08-0.07l2.46-0.71c0.07-0.02,0.14,0.02,0.16,0.09l0.66,1.97c0.01,0.03,0.01,0.07-0.01,0.1
				c-0.02,0.03-0.04,0.06-0.08,0.06c-0.8,0.25-1.55,0.52-2.24,0.82C36.32,26.24,36.3,26.24,36.28,26.24z M35.59,24.12
				c0.22,0.62,0.48,1.23,0.76,1.82c0.63-0.27,1.31-0.51,2.02-0.74l-0.58-1.72L35.59,24.12z"/>
		</g>
		<g>
			<path class="st0" d="M33.79,27.5c-0.04,0-0.09-0.02-0.11-0.06c-0.51-0.78-0.94-1.63-1.27-2.53c-0.01-0.03-0.01-0.07,0.01-0.11
				c0.02-0.03,0.05-0.06,0.08-0.07l2.24-0.65c0.07-0.02,0.14,0.02,0.16,0.08c0.25,0.71,0.55,1.43,0.89,2.14
				c0.01,0.03,0.02,0.07,0.01,0.1c-0.01,0.03-0.04,0.06-0.07,0.08c-0.65,0.3-1.28,0.63-1.86,0.99C33.84,27.5,33.81,27.5,33.79,27.5z
				 M32.71,24.95c0.3,0.79,0.68,1.54,1.12,2.23c0.53-0.32,1.08-0.61,1.66-0.88c-0.3-0.63-0.57-1.28-0.8-1.92L32.71,24.95z"/>
		</g>
		<g>
			<path class="st0" d="M45.45,37.61H30.54c-0.15,0-0.27-0.12-0.27-0.27v-2.24c0-0.15,0.12-0.26,0.27-0.26h4.94v-0.98
				c0-0.15,0.12-0.27,0.27-0.27h1.05v-1.65c-2.9-0.34-5.44-1.84-7-4.14c-1.35-2-1.81-4.37-1.28-6.69c0.55-2.45,2.11-4.54,4.4-5.88
				c1.37-0.8,2.95-1.28,4.55-1.39c0.13,0,0.24,0.07,0.27,0.2l0.25,0.92L38,15c0.02,0.07,0.01,0.15-0.04,0.22
				c-0.04,0.06-0.11,0.11-0.19,0.11c-0.06,0.01-0.12,0.01-0.19,0.02c-0.07,0.01-0.11,0.01-0.16,0.01c-0.22,0.02-0.44,0.05-0.67,0.09
				c-0.03,0.01-0.06,0.01-0.09,0.01c-0.27,0.04-0.48,0.09-0.69,0.15c-0.01,0-0.01,0-0.02,0c-0.2,0.05-0.39,0.11-0.59,0.18l0,0
				c0,0-0.01,0-0.01,0c-0.2,0.07-0.4,0.14-0.6,0.22c-0.03,0.01-0.06,0.03-0.1,0.05l-0.08,0.04c-0.03,0.01-0.05,0.03-0.08,0.04
				l-0.23,0.11c-0.08,0.04-0.15,0.07-0.22,0.11l-0.21,0.11c-0.03,0.01-0.06,0.03-0.09,0.05c-0.06,0.03-0.1,0.06-0.15,0.1
				c-0.02,0.01-0.05,0.03-0.07,0.05c-0.02,0.02-0.05,0.04-0.08,0.05c-0.16,0.1-0.32,0.22-0.49,0.35l-0.08,0.06
				c-0.07,0.05-0.13,0.1-0.2,0.16c-0.27,0.21-0.51,0.44-0.74,0.68c-0.07,0.08-0.14,0.15-0.2,0.23l-0.08,0.1
				c-0.62,0.74-1.08,1.55-1.38,2.4c0,0.01-0.02,0.06-0.02,0.06c-0.05,0.16-0.11,0.36-0.16,0.56l0,0c0,0.02-0.01,0.04-0.01,0.05
				c-0.27,1.13-0.25,2.35,0.06,3.49c0.01,0.02,0.01,0.04,0.01,0.06c0.05,0.19,0.12,0.38,0.19,0.57c0,0,0,0.01,0.01,0.01l0,0
				c0.05,0.13,0.11,0.26,0.16,0.39l0.04,0.08c0.17,0.37,0.36,0.7,0.58,1.03c0.32,0.48,0.72,0.93,1.18,1.35
				c0.02,0.01,0.03,0.03,0.05,0.04c0.02,0.01,0.04,0.03,0.05,0.04c0.04,0.03,0.07,0.06,0.11,0.09l0.09,0.08
				c0.07,0.06,0.14,0.11,0.21,0.17c0.87,0.67,1.84,1.14,2.92,1.43c0.14,0.04,0.27,0.07,0.4,0.1c0.31,0.07,0.67,0.13,1.08,0.17
				c0.01,0,0.03,0,0.05,0c0.03,0,0.06,0,0.1,0.01l0.04,0c0.18,0.01,0.35,0.03,0.53,0.03c0.01,0,0.03,0,0.05,0h0.09
				c0.19,0,0.38-0.01,0.56-0.02c0,0,0.06,0,0.06,0c0.03,0,0.07,0,0.1-0.01c0.01,0,0.06-0.01,0.09-0.01c0,0,0.02,0,0.04-0.01
				c0.19-0.02,0.37-0.04,0.54-0.07c0.01,0,0.06-0.01,0.07-0.01l0.05-0.01c0.02,0,0.03-0.01,0.05-0.01c0.08-0.02,0.2-0.04,0.33-0.07
				c0.03-0.01,0.07-0.02,0.12-0.02c0.04-0.01,0.07-0.01,0.11-0.03c0.02-0.01,0.05-0.01,0.08-0.01c0.19-0.06,0.35-0.11,0.52-0.16
				c0.02-0.01,0.04-0.01,0.06-0.02c0.19-0.06,0.39-0.14,0.58-0.22c0.01,0,0.02-0.01,0.03-0.01c0.06-0.03,0.09-0.04,0.13-0.05
				c0.07-0.04,0.18-0.05,0.25-0.02c0.07,0.03,0.15,0.08,0.18,0.16l0.26,0.98c0.03,0.13-0.03,0.26-0.15,0.31
				c-0.92,0.4-1.91,0.66-2.94,0.77v1.65h1.05c0.15,0,0.27,0.12,0.27,0.27v0.98h4.94c0.15,0,0.27,0.12,0.27,0.26v2.24
				C45.72,37.5,45.6,37.61,45.45,37.61z M30.81,37.08h14.38v-1.7h-4.94c-0.15,0-0.27-0.12-0.27-0.27v-0.98h-1.05
				c-0.15,0-0.27-0.12-0.27-0.27v-2.16c0-0.14,0.11-0.25,0.24-0.27c0.98-0.09,1.92-0.31,2.8-0.67l-0.12-0.45
				c-0.19,0.08-0.38,0.15-0.57,0.22c-0.01,0-0.02,0.01-0.03,0.01c-0.19,0.06-0.37,0.12-0.56,0.17c-0.03,0.01-0.07,0.03-0.12,0.03
				c-0.01,0-0.07,0.02-0.12,0.03c-0.03,0.01-0.06,0.01-0.09,0.02c-0.14,0.03-0.26,0.06-0.39,0.08c-0.01,0-0.02,0-0.03,0l-0.05,0.01
				c-0.02,0-0.07,0.01-0.08,0.01c0,0,0.03,0,0.06-0.01c-0.23,0.04-0.42,0.07-0.6,0.09c-0.02,0-0.06,0.01-0.1,0.01
				C38.91,31,38.86,31,38.85,31c-0.04,0-0.08,0-0.13,0c-0.23,0.02-0.42,0.02-0.62,0.03H38c0,0-0.06,0-0.06,0l0,0
				c-0.18,0-0.37-0.02-0.56-0.03l-0.09,0c-0.01,0-0.08-0.01-0.09-0.01c-0.46-0.04-0.83-0.1-1.17-0.18
				c-0.14-0.03-0.28-0.07-0.42-0.11c-1.15-0.31-2.19-0.82-3.09-1.51c-0.01-0.01-0.02-0.01-0.03-0.02c-0.07-0.06-0.15-0.12-0.22-0.18
				l-0.1-0.09c-0.04-0.04-0.06-0.05-0.09-0.08c-0.03-0.03-0.07-0.05-0.1-0.08c0,0,0,0-0.01,0l0,0c-0.5-0.45-0.93-0.94-1.28-1.46
				c-0.24-0.35-0.44-0.71-0.6-1.07c-0.03-0.07-0.05-0.1-0.06-0.14c-0.06-0.12-0.11-0.26-0.17-0.4c0,0,0-0.01-0.01-0.01
				c-0.09-0.24-0.16-0.43-0.2-0.61c-0.02-0.03-0.03-0.06-0.03-0.09c-0.33-1.22-0.35-2.52-0.05-3.76c0.06-0.23,0.12-0.44,0.19-0.65
				c0.33-0.96,0.82-1.82,1.49-2.62l0.08-0.09c0.07-0.09,0.15-0.18,0.23-0.26c0.25-0.26,0.51-0.51,0.78-0.73
				c0.06-0.06,0.14-0.12,0.22-0.18l0.08-0.06c0.17-0.13,0.35-0.26,0.53-0.38c0.02-0.01,0.07-0.05,0.09-0.06
				c0.09-0.06,0.15-0.1,0.21-0.14c0.03-0.02,0.07-0.04,0.11-0.06l0.17-0.09c0.11-0.06,0.2-0.1,0.28-0.14l0.2-0.1
				c0,0,0.05-0.03,0.06-0.03c0.07-0.03,0.1-0.05,0.12-0.06c0.03-0.02,0.08-0.05,0.13-0.07c0.21-0.09,0.42-0.16,0.63-0.23
				c0.01,0,0.01-0.01,0.02-0.01c0.21-0.07,0.42-0.13,0.63-0.19c0.01,0,0.02,0,0.03-0.01c0.22-0.05,0.43-0.1,0.65-0.14
				c0.03-0.01,0.07-0.01,0.1-0.01c0.28-0.04,0.52-0.07,0.76-0.1c0,0,0.01,0,0.01,0l-0.12-0.44c-1.44,0.13-2.86,0.58-4.1,1.3
				c-2.15,1.27-3.63,3.24-4.15,5.54c-0.49,2.17-0.06,4.4,1.2,6.28c1.51,2.23,4.01,3.67,6.85,3.93c0.14,0.01,0.24,0.13,0.24,0.27
				v2.16c0,0.15-0.12,0.27-0.27,0.27h-1.05v0.98c0,0.15-0.12,0.27-0.27,0.27h-4.94V37.08z"/>
		</g>
		<g>
			<path class="st0" d="M37.94,30.91C37.94,30.91,37.94,30.91,37.94,30.91c-0.19,0-0.37-0.02-0.55-0.03l-0.09-0.01
				c-0.02,0-0.04-0.01-0.05-0.02c-0.01,0-0.03,0.01-0.04,0.01c0,0-0.01,0-0.02,0c-0.43-0.04-0.8-0.1-1.13-0.18
				c-0.14-0.03-0.27-0.07-0.41-0.1c-0.02-0.01-0.04-0.01-0.05-0.03c-0.76-0.62-1.44-1.32-2.01-2.09c-0.29,0.2-0.56,0.4-0.81,0.62
				c-0.04,0.03-0.09,0.04-0.14,0.02c-0.01-0.01-0.04-0.02-0.05-0.03c-0.08-0.06-0.15-0.12-0.22-0.18l-0.1-0.09
				c-0.03-0.03-0.06-0.06-0.09-0.08c-0.03-0.03-0.06-0.05-0.09-0.08c-0.01-0.01-0.02-0.02-0.03-0.04c-0.03-0.06-0.02-0.13,0.03-0.17
				c0.35-0.3,0.66-0.54,0.97-0.75c-0.5-0.78-0.91-1.61-1.24-2.48l-1.66,0.48c-0.07,0.02-0.14-0.02-0.16-0.08
				c-0.09-0.25-0.16-0.44-0.21-0.62c-0.02-0.03-0.03-0.07-0.02-0.11c0.01-0.04,0.05-0.07,0.1-0.08l1.66-0.48
				c-0.28-0.95-0.44-1.91-0.5-2.85c-0.41-0.01-0.8-0.04-1.19-0.09c-0.04,0-0.07-0.03-0.09-0.06c-0.02-0.03-0.03-0.07-0.02-0.11
				c0.05-0.21,0.12-0.42,0.18-0.61l0.13,0.04l-0.11-0.07c0.01-0.07,0.07-0.11,0.14-0.1c0.34,0.04,0.65,0.06,0.94,0.07
				c0.02-0.83,0.13-1.65,0.34-2.45c0.01-0.02,0.02-0.04,0.03-0.05l0.08-0.09c0.07-0.09,0.14-0.17,0.22-0.26
				c0.24-0.26,0.5-0.5,0.77-0.71c0.05-0.04,0.11-0.04,0.16,0c0.05,0.04,0.07,0.1,0.04,0.16c-0.44,1.05-0.67,2.2-0.7,3.41
				c0.56-0.02,1.15-0.07,1.76-0.15c-0.12-0.81-0.18-1.61-0.18-2.36c0-0.2,0-0.4,0.01-0.59c-0.27-0.12-0.53-0.27-0.8-0.48
				c-0.03-0.03-0.05-0.07-0.05-0.11c0-0.04,0.02-0.08,0.05-0.11c0.17-0.13,0.35-0.25,0.53-0.37c0.02-0.01,0.04-0.02,0.05-0.03
				c0.05-0.04,0.11-0.04,0.16-0.01c0.05,0.03,0.1,0.07,0.15,0.1c0.01-0.08,0.03-0.17,0.04-0.25c0.01-0.04,0.03-0.08,0.07-0.1
				c0.04-0.02,0.07-0.04,0.11-0.06L33.86,16c0.08-0.04,0.16-0.08,0.24-0.12l0.24-0.12c0.02-0.01,0.04-0.02,0.06-0.03
				c0.02-0.01,0.05-0.02,0.07-0.03c0.04-0.02,0.1-0.01,0.14,0.02c0.04,0.03,0.06,0.08,0.05,0.13c-0.07,0.31-0.12,0.61-0.15,0.91
				c0.24,0.05,0.47,0.08,0.7,0.08c0.11,0,0.22-0.01,0.36-0.02l-0.41-1.25c-0.01-0.04-0.01-0.09,0.02-0.12
				c0.01-0.01,0.02-0.03,0.04-0.04c0.01-0.01,0.02-0.01,0.03-0.01c0.21-0.07,0.42-0.13,0.64-0.19c0.07-0.02,0.14,0.02,0.16,0.09
				l0.43,1.28c0.33-0.14,0.63-0.33,0.89-0.56c-0.24-0.26-0.48-0.51-0.74-0.74c-0.04-0.03-0.05-0.09-0.04-0.14
				c0.01-0.05,0.05-0.08,0.11-0.09c0.23-0.04,0.46-0.07,0.71-0.09c0.05,0,0.09-0.01,0.13-0.01c0.04,0,0.11,0.01,0.14,0.04l0.11,0.12
				c0.05,0.06,0.11,0.11,0.16,0.17c0.05-0.1,0.09-0.2,0.13-0.31c0.02-0.05,0.07-0.08,0.13-0.08c0.22,0,0.45,0.02,0.71,0.04
				c0.02,0,0.03,0.01,0.05,0.01c0.02-0.01,0.04-0.01,0.06-0.01c0.54,0.06,1.08,0.16,1.6,0.31c0.02,0,0.03,0.01,0.05,0.03
				c0.71,0.59,1.34,1.24,1.88,1.95c0.24-0.16,0.49-0.35,0.77-0.57c0.05-0.04,0.12-0.04,0.16,0c0.21,0.16,0.38,0.3,0.54,0.43
				c0.03,0.03,0.05,0.06,0.05,0.1c0,0.04-0.02,0.08-0.05,0.1c-0.3,0.25-0.61,0.48-0.93,0.7c0.53,0.8,0.97,1.68,1.31,2.6l1.64-0.47
				c0.07-0.02,0.14,0.02,0.16,0.08c0.01,0.04,0.03,0.08,0.05,0.11c0.03,0.07,0.06,0.15,0.08,0.22c0.03,0.06,0.04,0.13,0.06,0.2
				c0.01,0.03,0.02,0.07,0.03,0.1c0.02,0.07-0.02,0.14-0.09,0.16l-1.64,0.48c0.26,0.87,0.42,1.76,0.49,2.64
				c0.46,0.01,0.88,0.04,1.29,0.09c0.04,0,0.07,0.03,0.09,0.06c0.02,0.03,0.03,0.07,0.02,0.1c-0.05,0.24-0.1,0.46-0.16,0.66
				c-0.02,0.06-0.08,0.1-0.14,0.09c-0.39-0.04-0.73-0.06-1.06-0.07c-0.01,0.99-0.14,1.97-0.41,2.91c0,0.02-0.01,0.04-0.03,0.05
				c-0.47,0.54-1,1.02-1.59,1.42c-0.05,0.03-0.11,0.03-0.16,0c-0.14-0.11-0.28-0.2-0.42-0.28c-0.02,0.22-0.05,0.43-0.09,0.63
				c0,0.04-0.03,0.08-0.07,0.1c-0.16,0.09-0.38,0.21-0.61,0.32c-0.04,0.02-0.08,0.02-0.11,0c-0.03-0.01-0.05-0.03-0.06-0.06
				c-0.03,0-0.05-0.01-0.07-0.03c-0.04-0.03-0.07-0.08-0.06-0.12c0.08-0.39,0.13-0.78,0.17-1.17c-0.39-0.08-0.73-0.1-1.15-0.03
				l0.49,1.47c0.01,0.04,0.01,0.09-0.02,0.12c-0.01,0.01-0.02,0.02-0.03,0.03c-0.01,0.01-0.03,0.02-0.04,0.02
				c-0.18,0.06-0.37,0.12-0.55,0.17c-0.04,0.01-0.07,0.03-0.11,0.03c-0.06,0-0.12-0.03-0.14-0.09l-0.49-1.47
				c-0.34,0.16-0.64,0.37-0.89,0.63c0.26,0.29,0.53,0.57,0.85,0.85c0.04,0.03,0.05,0.09,0.04,0.14c-0.01,0.05-0.05,0.08-0.1,0.09
				c-0.18,0.03-0.36,0.06-0.55,0.08c-0.03,0-0.06,0.01-0.1,0.01c-0.02,0-0.04,0-0.06,0.01c-0.05,0.01-0.09,0.01-0.13,0.01l-0.05,0
				c-0.03,0-0.07-0.01-0.1-0.04l-0.12-0.12c-0.07-0.07-0.14-0.14-0.21-0.22c-0.04,0.1-0.08,0.2-0.12,0.31
				c-0.02,0.06-0.07,0.09-0.13,0.09C37.97,30.9,37.95,30.91,37.94,30.91z M37.48,30.62c0.14,0.01,0.28,0.02,0.42,0.02
				c0.05-0.15,0.11-0.3,0.19-0.44c0.02-0.04,0.06-0.07,0.1-0.07c0.04-0.01,0.09,0.01,0.12,0.04c0.11,0.12,0.22,0.24,0.34,0.35
				l0.08,0.08c0.03,0,0.06,0,0.1,0c0.02,0,0.05-0.01,0.08-0.01c0.02,0,0.04-0.01,0.07-0.01c0.09-0.01,0.18-0.02,0.27-0.03
				c-0.27-0.25-0.51-0.51-0.74-0.78c-0.04-0.05-0.04-0.12,0-0.17c0.33-0.37,0.73-0.65,1.2-0.85c0.04-0.01,0.07-0.01,0.11,0
				c0.03,0.02,0.06,0.04,0.07,0.08l0.5,1.49c0.13-0.03,0.26-0.07,0.38-0.11l-0.5-1.48c-0.01-0.04-0.01-0.08,0.01-0.11
				c0.02-0.03,0.05-0.06,0.09-0.06c0.56-0.11,1.01-0.1,1.53,0.03c0.06,0.01,0.11,0.07,0.1,0.14c-0.03,0.38-0.08,0.76-0.15,1.13
				c0.01,0.01,0.02,0.02,0.04,0.03c0.15-0.07,0.29-0.15,0.4-0.21c0.04-0.25,0.07-0.49,0.1-0.75c0-0.04,0.03-0.08,0.07-0.1
				c0.04-0.02,0.08-0.02,0.12,0c0.18,0.09,0.37,0.2,0.56,0.34c0.12-0.08,0.23-0.17,0.34-0.26c-0.29-0.23-0.61-0.41-0.96-0.55
				c-0.05-0.02-0.09-0.07-0.08-0.13l0-0.11c0.01-0.11,0.01-0.23,0.01-0.35c0-0.82-0.08-1.71-0.23-2.65c-0.01-0.04,0-0.07,0.02-0.1
				c0.02-0.03,0.05-0.05,0.09-0.05c0.73-0.1,1.43-0.16,2.09-0.18c0.03,0,0.07,0.01,0.1,0.04c0.03,0.03,0.04,0.06,0.04,0.09
				c0,0.03,0.01,0.05,0.01,0.08c0,1.22-0.21,2.42-0.62,3.5c0.22-0.2,0.43-0.41,0.62-0.64c0.26-0.93,0.39-1.89,0.39-2.86
				c0-0.04-0.01-0.06-0.01-0.08c0-0.04,0.02-0.07,0.04-0.09c0.03-0.02,0.06-0.05,0.1-0.04c0.35,0,0.7,0.03,1.11,0.06
				c0.04-0.13,0.07-0.26,0.1-0.39c-0.39-0.05-0.8-0.07-1.24-0.07c-0.07,0-0.13-0.06-0.13-0.13c-0.06-0.94-0.24-1.89-0.52-2.83
				c-0.01-0.03-0.01-0.07,0.01-0.1c0.02-0.03,0.05-0.05,0.08-0.06l1.64-0.48c-0.02-0.06-0.03-0.11-0.05-0.17
				c-0.02-0.08-0.05-0.14-0.08-0.21c0,0,0,0,0-0.01l-1.64,0.47c-0.07,0.02-0.14-0.02-0.16-0.08c-0.36-0.99-0.83-1.92-1.4-2.77
				c-0.02-0.03-0.03-0.07-0.02-0.1c0.01-0.04,0.03-0.07,0.06-0.09c0.31-0.2,0.6-0.41,0.89-0.65c-0.1-0.08-0.21-0.17-0.32-0.26
				c-0.29,0.23-0.55,0.42-0.81,0.59c-0.06,0.04-0.14,0.02-0.18-0.03c-0.54-0.72-1.18-1.39-1.9-1.99c-0.31-0.09-0.62-0.16-0.94-0.21
				c0.92,0.64,1.77,1.46,2.48,2.4c0.02,0.03,0.03,0.07,0.02,0.11c-0.01,0.04-0.03,0.07-0.06,0.09c-0.54,0.32-1.15,0.64-1.81,0.93
				c-0.06,0.03-0.14,0-0.17-0.06c-0.52-0.98-1.1-1.86-1.73-2.63c-0.04-0.05-0.04-0.11,0-0.16c0.17-0.24,0.31-0.5,0.41-0.77
				c-0.15-0.02-0.29-0.02-0.43-0.03c-0.06,0.15-0.13,0.29-0.21,0.42c-0.02,0.04-0.06,0.06-0.1,0.06c-0.04,0-0.08-0.01-0.11-0.04
				c-0.1-0.1-0.19-0.2-0.28-0.3l-0.07-0.07c-0.04,0-0.07,0.01-0.1,0.01c-0.14,0.01-0.28,0.03-0.41,0.05
				c0.22,0.21,0.43,0.43,0.64,0.67c0.05,0.05,0.04,0.13-0.01,0.18c-0.33,0.33-0.74,0.59-1.21,0.76c-0.03,0.01-0.07,0.01-0.1,0
				c-0.03-0.02-0.06-0.04-0.07-0.08l-0.43-1.3c-0.12,0.04-0.25,0.07-0.38,0.12l0.42,1.27c0.01,0.04,0.01,0.08-0.01,0.11
				c-0.02,0.03-0.05,0.06-0.09,0.06c-0.22,0.03-0.4,0.05-0.56,0.05c-0.29,0-0.57-0.04-0.87-0.12c-0.06-0.02-0.11-0.08-0.1-0.14
				c0.02-0.26,0.06-0.52,0.11-0.79l-0.13,0.06c-0.08,0.04-0.15,0.07-0.23,0.11l-0.03,0.02c-0.02,0.01-0.04,0.02-0.05,0.03
				c-0.02,0.12-0.04,0.24-0.05,0.36c-0.01,0.04-0.03,0.08-0.07,0.1c-0.04,0.02-0.08,0.02-0.12,0c-0.09-0.05-0.18-0.1-0.27-0.16
				c-0.12,0.08-0.24,0.16-0.36,0.25c0.23,0.16,0.46,0.29,0.68,0.38c0.05,0.02,0.09,0.07,0.08,0.13c-0.01,0.22-0.02,0.44-0.02,0.67
				c0,0.79,0.07,1.61,0.2,2.46c0.01,0.04,0,0.07-0.02,0.1c-0.02,0.03-0.05,0.05-0.09,0.05c-0.72,0.1-1.41,0.16-2.07,0.17
				c-0.05,0-0.07-0.01-0.1-0.04c-0.03-0.03-0.04-0.06-0.04-0.1c0.01-1.11,0.19-2.16,0.53-3.15c-0.12,0.11-0.24,0.23-0.35,0.35
				c-0.07,0.08-0.14,0.16-0.21,0.24l-0.06,0.07c-0.21,0.82-0.32,1.66-0.32,2.5c0,0.04-0.02,0.07-0.04,0.09
				c-0.03,0.02-0.05,0.04-0.1,0.04c-0.31,0-0.64-0.02-0.99-0.06c-0.04,0.12-0.08,0.25-0.12,0.39c0.37,0.04,0.74,0.07,1.14,0.08
				c0.07,0,0.13,0.06,0.13,0.13c0.05,1.01,0.23,2.03,0.53,3.04c0.01,0.04,0.01,0.07-0.01,0.1c-0.02,0.03-0.05,0.05-0.08,0.07
				l-1.65,0.48c0.03,0.11,0.08,0.24,0.13,0.38l1.66-0.48c0.07-0.02,0.14,0.02,0.16,0.08c0.34,0.93,0.78,1.83,1.33,2.65
				c0.04,0.06,0.02,0.14-0.04,0.18c-0.3,0.2-0.6,0.43-0.94,0.71c0.02,0.02,0.05,0.04,0.07,0.06l0.1,0.08
				c0.05,0.04,0.1,0.08,0.15,0.12c0.27-0.23,0.55-0.43,0.86-0.64c0.06-0.04,0.14-0.03,0.18,0.03c0.58,0.79,1.26,1.5,2.02,2.13
				c0.13,0.03,0.25,0.06,0.38,0.09c0.16,0.04,0.34,0.07,0.52,0.1c-0.96-0.67-1.84-1.53-2.58-2.53c-0.02-0.03-0.03-0.07-0.02-0.1
				c0.01-0.04,0.03-0.07,0.06-0.09c0.58-0.35,1.19-0.68,1.82-0.96c0.06-0.03,0.14,0,0.17,0.06c0.52,1,1.11,1.91,1.76,2.72
				c0.04,0.04,0.04,0.11,0.01,0.16C37.7,30.04,37.57,30.32,37.48,30.62z M34.36,27.96c0.81,1.07,1.79,1.97,2.85,2.62
				c0.09-0.31,0.21-0.6,0.37-0.86c-0.61-0.77-1.18-1.64-1.67-2.58C35.38,27.39,34.86,27.66,34.36,27.96z M42.69,28.14
				c0.33,0.13,0.63,0.31,0.9,0.52c0.45-1.1,0.69-2.34,0.7-3.6c-0.57,0.02-1.18,0.07-1.8,0.15c0.14,0.91,0.21,1.77,0.21,2.55
				c0,0.12,0,0.24-0.01,0.36L42.69,28.14z M38.59,16.03c0.58,0.74,1.13,1.57,1.63,2.49c0.55-0.26,1.07-0.52,1.54-0.79
				c-0.78-1.01-1.73-1.87-2.76-2.5C38.89,15.5,38.76,15.77,38.59,16.03z M38.17,29.3C38.17,29.3,38.17,29.3,38.17,29.3
				c-0.04,0-0.08-0.02-0.1-0.05c-0.59-0.76-1.13-1.6-1.6-2.49c-0.02-0.03-0.02-0.07-0.01-0.11c0.01-0.04,0.04-0.06,0.07-0.08
				c0.7-0.29,1.44-0.56,2.18-0.79c0.07-0.02,0.14,0.01,0.17,0.08l0.78,2.34c0.02,0.07-0.01,0.14-0.08,0.17
				c-0.51,0.21-0.95,0.51-1.31,0.89C38.24,29.29,38.21,29.3,38.17,29.3z M36.77,26.76c0.42,0.79,0.9,1.53,1.42,2.2
				c0.34-0.33,0.73-0.6,1.18-0.8l-0.7-2.1C38.02,26.28,37.38,26.51,36.77,26.76z M40.17,28.18c-0.06,0-0.11-0.04-0.13-0.09
				l-0.78-2.32c-0.01-0.03-0.01-0.07,0.01-0.1c0.02-0.03,0.05-0.06,0.08-0.07c0.74-0.21,1.51-0.38,2.29-0.52c0.04,0,0.07,0,0.1,0.02
				c0.03,0.02,0.05,0.05,0.05,0.09c0.15,0.91,0.22,1.78,0.22,2.58c0,0.05,0,0.09,0,0.13c0,0.04,0,0.08,0,0.12
				c0,0.04-0.02,0.08-0.05,0.1c-0.03,0.02-0.07,0.04-0.11,0.03c-0.53-0.1-0.96-0.12-1.66,0.02C40.19,28.18,40.18,28.18,40.17,28.18z
				 M39.57,25.82l0.69,2.08c0.61-0.12,1.02-0.11,1.5-0.03c0-0.03,0-0.06,0-0.1c0-0.75-0.07-1.56-0.19-2.41
				C40.89,25.48,40.21,25.64,39.57,25.82z M33.79,27.5c-0.04,0-0.09-0.02-0.11-0.06c-0.51-0.78-0.94-1.63-1.27-2.53
				c-0.01-0.03-0.01-0.07,0.01-0.11c0.02-0.03,0.05-0.06,0.08-0.07l2.24-0.65c0.07-0.02,0.14,0.02,0.16,0.08
				c0.25,0.71,0.55,1.43,0.89,2.14c0.01,0.03,0.02,0.07,0.01,0.1c-0.01,0.03-0.04,0.06-0.07,0.08c-0.65,0.3-1.28,0.63-1.86,0.99
				C33.84,27.5,33.81,27.5,33.79,27.5z M32.71,24.95c0.3,0.79,0.68,1.54,1.12,2.23c0.53-0.32,1.08-0.61,1.66-0.88
				c-0.3-0.63-0.57-1.28-0.8-1.92L32.71,24.95z M36.28,26.24c-0.05,0-0.1-0.03-0.12-0.08c-0.33-0.68-0.62-1.38-0.87-2.09
				c-0.01-0.04-0.01-0.07,0.01-0.1c0.02-0.03,0.05-0.06,0.08-0.07l2.46-0.71c0.07-0.02,0.14,0.02,0.16,0.09l0.66,1.97
				c0.01,0.03,0.01,0.07-0.01,0.1c-0.02,0.03-0.04,0.06-0.08,0.06c-0.8,0.25-1.55,0.52-2.24,0.82
				C36.32,26.24,36.3,26.24,36.28,26.24z M35.59,24.12c0.22,0.62,0.48,1.23,0.76,1.82c0.63-0.27,1.31-0.51,2.02-0.74l-0.58-1.72
				L35.59,24.12z M39.18,25.22c-0.06,0-0.11-0.03-0.13-0.09l-0.65-1.96c-0.01-0.04-0.01-0.07,0.01-0.1
				c0.02-0.03,0.05-0.06,0.08-0.07l2.48-0.72c0.07-0.02,0.14,0.02,0.16,0.09c0.23,0.73,0.42,1.46,0.56,2.16
				c0.01,0.04,0,0.07-0.02,0.1c-0.02,0.03-0.05,0.05-0.09,0.05c-0.73,0.12-1.52,0.3-2.36,0.54C39.2,25.22,39.19,25.22,39.18,25.22z
				 M38.7,23.22l0.57,1.71c0.75-0.2,1.47-0.37,2.13-0.48c-0.12-0.61-0.29-1.23-0.48-1.87L38.7,23.22z M42.22,24.58
				c-0.06,0-0.12-0.04-0.13-0.11c-0.14-0.7-0.33-1.44-0.57-2.21c-0.01-0.03-0.01-0.07,0.01-0.1c0.02-0.03,0.05-0.05,0.08-0.07
				l2.24-0.65c0.07-0.02,0.14,0.02,0.17,0.09c0.28,0.9,0.45,1.81,0.51,2.71c0,0.04-0.01,0.07-0.03,0.1
				c-0.02,0.03-0.06,0.04-0.1,0.04c-0.7,0.02-1.43,0.08-2.16,0.19C42.23,24.58,42.22,24.58,42.22,24.58z M41.81,22.32
				c0.21,0.69,0.38,1.35,0.51,1.98c0.65-0.09,1.29-0.15,1.92-0.17c-0.06-0.79-0.22-1.59-0.45-2.39L41.81,22.32z M32.32,24.36
				c-0.06,0-0.11-0.04-0.13-0.09c-0.3-0.97-0.47-1.95-0.52-2.92c0-0.04,0.01-0.07,0.04-0.1c0.02-0.03,0.06-0.04,0.09-0.04
				c0.68-0.02,1.39-0.08,2.13-0.18c0.07-0.01,0.14,0.04,0.15,0.11c0.15,0.78,0.35,1.58,0.61,2.4c0.01,0.03,0.01,0.07-0.01,0.1
				c-0.02,0.03-0.05,0.06-0.08,0.06l-2.24,0.65C32.35,24.36,32.34,24.36,32.32,24.36z M31.95,21.47c0.05,0.86,0.21,1.73,0.46,2.6
				l1.98-0.58c-0.23-0.74-0.42-1.47-0.56-2.18C33.19,21.4,32.56,21.45,31.95,21.47z M35.21,23.53c-0.06,0-0.11-0.04-0.13-0.09
				c-0.25-0.79-0.45-1.58-0.6-2.35c-0.01-0.04,0-0.07,0.02-0.1c0.02-0.03,0.05-0.05,0.09-0.06c0.75-0.13,1.53-0.3,2.33-0.51
				c0.07-0.02,0.14,0.02,0.16,0.09l0.72,2.14c0.01,0.03,0.01,0.07-0.01,0.1c-0.02,0.03-0.05,0.06-0.08,0.07l-2.46,0.72
				C35.23,23.53,35.22,23.53,35.21,23.53z M34.77,21.17c0.13,0.68,0.31,1.37,0.52,2.06l2.21-0.64l-0.63-1.89
				C36.15,20.89,35.45,21.05,34.77,21.17z M38.31,22.63c-0.06,0-0.11-0.04-0.13-0.09l-0.72-2.14c-0.01-0.03-0.01-0.07,0.01-0.1
				c0.02-0.03,0.05-0.05,0.08-0.07c0.74-0.22,1.49-0.49,2.24-0.8c0.07-0.03,0.14,0,0.17,0.06c0.34,0.69,0.66,1.45,0.94,2.24
				c0.01,0.04,0.01,0.07-0.01,0.1c-0.02,0.03-0.05,0.06-0.08,0.07l-2.47,0.72C38.34,22.63,38.33,22.63,38.31,22.63z M37.77,20.44
				l0.63,1.89l2.22-0.64c-0.25-0.69-0.53-1.35-0.83-1.97C39.11,19.99,38.43,20.24,37.77,20.44z M41.43,21.72
				c-0.06,0-0.11-0.04-0.13-0.09c-0.28-0.79-0.6-1.56-0.96-2.29c-0.02-0.03-0.02-0.07-0.01-0.1c0.01-0.03,0.04-0.06,0.07-0.08
				c0.67-0.3,1.29-0.62,1.87-0.97c0.06-0.04,0.14-0.02,0.18,0.04c0.54,0.81,1,1.7,1.35,2.66c0.01,0.03,0.01,0.07-0.01,0.11
				c-0.02,0.03-0.05,0.06-0.08,0.07l-2.24,0.65C41.46,21.72,41.44,21.72,41.43,21.72z M40.64,19.35c0.33,0.67,0.62,1.37,0.87,2.08
				l1.98-0.58c-0.32-0.85-0.72-1.64-1.2-2.36C41.79,18.79,41.23,19.08,40.64,19.35z M34.5,20.53c-0.03,0-0.06-0.01-0.08-0.03
				c-0.03-0.02-0.05-0.05-0.05-0.09c-0.13-0.85-0.19-1.66-0.19-2.4c0-0.08,0-0.17,0.01-0.25c0-0.07,0-0.15,0-0.22
				c0-0.04,0.02-0.08,0.05-0.1c0.03-0.03,0.07-0.04,0.11-0.03c0.49,0.11,0.97,0.14,1.59,0.02c0.07-0.01,0.13,0.03,0.15,0.09
				l0.78,2.33c0.01,0.03,0.01,0.07-0.01,0.11c-0.02,0.03-0.05,0.06-0.08,0.07c-0.74,0.2-1.49,0.37-2.25,0.5
				C34.51,20.53,34.51,20.53,34.5,20.53z M34.45,17.71c0,0.02,0,0.05,0,0.07c0,0.08,0,0.16,0,0.24c0,0.69,0.06,1.43,0.17,2.22
				c0.66-0.12,1.32-0.26,1.96-0.43l-0.7-2.09C35.34,17.81,34.9,17.8,34.45,17.71z M37.38,19.85c-0.06,0-0.11-0.04-0.13-0.09
				l-0.78-2.33c-0.02-0.07,0.01-0.14,0.08-0.17c0.51-0.19,0.96-0.47,1.32-0.82c0.03-0.03,0.06-0.04,0.1-0.04
				c0.04,0,0.07,0.02,0.09,0.05c0.58,0.73,1.11,1.55,1.58,2.43c0.02,0.03,0.02,0.07,0.01,0.11c-0.01,0.04-0.04,0.06-0.07,0.08
				c-0.72,0.29-1.45,0.56-2.17,0.77C37.41,19.85,37.39,19.85,37.38,19.85z M36.77,17.47l0.7,2.08c0.63-0.19,1.27-0.42,1.89-0.67
				c-0.42-0.77-0.89-1.49-1.4-2.14C37.62,17.05,37.22,17.29,36.77,17.47z"/>
		</g>
		<g>
			<path class="st0" d="M41.82,30.28c-0.06,0-0.11-0.04-0.13-0.1l-0.05-0.17c-0.02-0.07,0.03-0.14,0.1-0.16
				c0.07-0.02,0.14,0.02,0.16,0.1l0.03,0.13c0.01,0.02,0.02,0.05,0.02,0.07C41.96,30.22,41.9,30.28,41.82,30.28
				C41.82,30.28,41.82,30.28,41.82,30.28z"/>
		</g>
		<g>
			<path class="st0" d="M18.04,87.48l1.27,0.55l-0.19,0.43l-0.83-0.36l-0.19,0.42l0.84,0.36l-0.19,0.43l-0.83-0.36l-0.27,0.62
				l0.83,0.36l-0.19,0.43l-1.28-0.55L18.04,87.48z"/>
		</g>
		<g>
			<path class="st0" d="M21.6,89.2l-0.44,0.19c-0.06-0.2-0.16-0.33-0.28-0.37c-0.06-0.02-0.11-0.02-0.16,0
				c-0.05,0.02-0.08,0.05-0.09,0.09c-0.02,0.04-0.02,0.08,0,0.13c0.02,0.06,0.1,0.2,0.23,0.43c0.13,0.2,0.21,0.33,0.23,0.38
				c0.06,0.13,0.09,0.24,0.11,0.34c0.01,0.1,0,0.2-0.04,0.3c-0.06,0.19-0.18,0.34-0.37,0.42c-0.18,0.08-0.38,0.09-0.6,0.01
				c-0.17-0.06-0.31-0.15-0.41-0.28c-0.1-0.13-0.16-0.3-0.19-0.51l0.46-0.1c0.05,0.25,0.14,0.4,0.29,0.46
				c0.08,0.02,0.15,0.02,0.22-0.01c0.07-0.03,0.11-0.07,0.14-0.13c0.01-0.05,0.01-0.11-0.01-0.18c-0.02-0.07-0.08-0.18-0.19-0.34
				c-0.19-0.3-0.31-0.53-0.34-0.67c-0.04-0.14-0.04-0.28,0-0.39c0.05-0.17,0.16-0.29,0.33-0.37c0.17-0.07,0.34-0.08,0.53-0.02
				c0.12,0.05,0.23,0.11,0.32,0.2C21.44,88.88,21.53,89.02,21.6,89.2z"/>
		</g>
		<g>
			<path class="st0" d="M24.19,90.03l-0.41,0.22c-0.16-0.29-0.38-0.48-0.66-0.55c-0.23-0.06-0.45-0.03-0.66,0.08
				c-0.21,0.12-0.34,0.3-0.4,0.53c-0.04,0.16-0.05,0.32-0.01,0.47c0.04,0.15,0.11,0.27,0.22,0.38c0.11,0.11,0.25,0.18,0.4,0.23
				c0.14,0.03,0.27,0.04,0.39,0.02c0.13-0.02,0.28-0.08,0.45-0.18l0.23,0.41c-0.23,0.13-0.43,0.2-0.61,0.23
				c-0.18,0.03-0.38,0.01-0.58-0.05c-0.38-0.1-0.66-0.31-0.84-0.61c-0.18-0.31-0.22-0.65-0.12-1.03c0.06-0.24,0.17-0.45,0.34-0.61
				c0.16-0.16,0.36-0.27,0.6-0.33c0.24-0.06,0.47-0.06,0.71,0c0.21,0.06,0.39,0.15,0.55,0.29C23.97,89.67,24.1,89.83,24.19,90.03z"
				/>
		</g>
		<g>
			<path class="st0" d="M24.59,89.64l0.47,0.11l-0.55,2.49l-0.46-0.11L24.59,89.64z"/>
		</g>
		<g>
			<path class="st0" d="M25.52,89.85l1.37,0.27l-0.09,0.46l-0.89-0.17l-0.09,0.45l0.89,0.17l-0.09,0.46l-0.89-0.18l-0.13,0.66
				l0.9,0.17l-0.09,0.47l-1.36-0.26L25.52,89.85z"/>
		</g>
		<g>
			<path class="st0" d="M27.22,90.18l0.46,0.07l0.83,1.82l0.25-1.66l0.48,0.07L28.85,93l-0.46-0.07l-0.83-1.81l-0.25,1.65
				l-0.48-0.07L27.22,90.18z"/>
		</g>
		<g>
			<path class="st0" d="M29.47,90.51l1.4,0.16l-0.05,0.48l-0.46-0.05l-0.24,2.06l-0.49-0.05l0.24-2.06l-0.44-0.06L29.47,90.51z"/>
		</g>
		<g>
			<path class="st0" d="M31.11,90.69l0.48,0.05l-0.24,2.54l-0.48-0.05L31.11,90.69z"/>
		</g>
		<g>
			<path class="st0" d="M32.83,90.83l0.49,0.03l0.81,2.61l-0.5-0.03l-0.17-0.54l-1.04-0.07l-0.24,0.51l-0.5-0.04L32.83,90.83z
				 M33.04,91.52l-0.39,0.85l0.67,0.04L33.04,91.52z"/>
		</g>
		<g>
			<path class="st0" d="M35.52,90.97l0.49,0L36,91.93l0.85,0.01l0.02-0.96l0.48,0l-0.03,2.55l-0.49,0l0.02-1.12L36,92.4l-0.01,1.12
				l-0.49,0L35.52,90.97z"/>
		</g>
		<g>
			<path class="st0" d="M39.04,90.9c0.36-0.01,0.67,0.12,0.94,0.37c0.27,0.25,0.4,0.57,0.41,0.95c0.01,0.37-0.11,0.69-0.36,0.95
				c-0.25,0.26-0.56,0.4-0.93,0.41c-0.38,0.01-0.7-0.11-0.96-0.37c-0.26-0.26-0.39-0.57-0.4-0.94c-0.01-0.25,0.05-0.47,0.16-0.68
				c0.11-0.21,0.27-0.38,0.47-0.5C38.58,90.97,38.8,90.9,39.04,90.9z M39.04,91.37c-0.24,0.01-0.43,0.1-0.59,0.26
				c-0.16,0.17-0.23,0.38-0.22,0.63c0,0.28,0.11,0.5,0.32,0.66c0.16,0.12,0.35,0.19,0.54,0.18c0.23,0,0.42-0.09,0.58-0.26
				c0.16-0.17,0.24-0.38,0.23-0.63c0-0.25-0.09-0.44-0.25-0.61C39.48,91.45,39.27,91.36,39.04,91.37z"/>
		</g>
		<g>
			<path class="st0" d="M40.94,90.9l0.47-0.04l0.72,1.73l0.47-1.81l0.46-0.04l0.61,2.51l-0.46,0.04l-0.4-1.59l-0.42,1.64l-0.43,0.03
				l-0.65-1.57l-0.17,1.63l-0.47,0.03L40.94,90.9z"/>
		</g>
		<g>
			<path class="st0" d="M43.75,90.66l0.48-0.05l0.27,2.53l-0.48,0.06L43.75,90.66z"/>
		</g>
		<g>
			<path class="st0" d="M44.69,90.57l0.46-0.06l1.31,1.51l-0.23-1.66l0.48-0.07l0.35,2.52l-0.46,0.07l-1.31-1.51l0.22,1.66
				l-0.48,0.07L44.69,90.57z"/>
		</g>
		<g>
			<path class="st0" d="M47.16,90.22l0.48-0.09l0.42,2.51l-0.47,0.08L47.16,90.22z"/>
		</g>
		<g>
			<path class="st0" d="M49.48,90.13l-0.29,0.38c-0.16-0.14-0.3-0.21-0.42-0.18c-0.06,0.01-0.12,0.04-0.15,0.08
				c-0.03,0.04-0.04,0.08-0.04,0.12c0.01,0.04,0.03,0.08,0.07,0.11c0.05,0.04,0.18,0.12,0.41,0.26c0.21,0.11,0.34,0.19,0.39,0.22
				c0.11,0.08,0.2,0.16,0.26,0.24c0.06,0.08,0.09,0.17,0.11,0.28c0.04,0.21,0.01,0.39-0.11,0.55c-0.12,0.17-0.29,0.27-0.51,0.31
				c-0.18,0.03-0.34,0.03-0.49-0.04c-0.15-0.06-0.29-0.18-0.42-0.34l0.35-0.32c0.16,0.2,0.32,0.28,0.48,0.25
				c0.08-0.02,0.14-0.05,0.19-0.12c0.05-0.06,0.06-0.12,0.05-0.18c-0.01-0.06-0.04-0.11-0.09-0.16c-0.05-0.04-0.16-0.12-0.33-0.2
				c-0.32-0.17-0.53-0.31-0.63-0.41c-0.11-0.1-0.17-0.21-0.19-0.33c-0.04-0.17,0-0.34,0.11-0.48c0.1-0.15,0.25-0.25,0.45-0.28
				c0.12-0.03,0.25-0.02,0.37,0.02C49.17,89.93,49.32,90.01,49.48,90.13z"/>
		</g>
		<g>
			<path class="st0" d="M52.1,89.49l-0.27,0.4c-0.17-0.14-0.31-0.19-0.44-0.16c-0.06,0.02-0.11,0.05-0.14,0.09
				c-0.03,0.04-0.04,0.08-0.03,0.12c0.01,0.04,0.03,0.08,0.07,0.1c0.06,0.04,0.19,0.11,0.42,0.23c0.22,0.1,0.35,0.17,0.4,0.2
				c0.12,0.07,0.22,0.14,0.28,0.22c0.06,0.08,0.1,0.17,0.13,0.28c0.05,0.2,0.02,0.39-0.08,0.56c-0.1,0.16-0.27,0.28-0.49,0.34
				c-0.17,0.04-0.33,0.04-0.49-0.01c-0.14-0.05-0.29-0.16-0.43-0.32l0.33-0.34c0.17,0.19,0.34,0.26,0.49,0.22
				c0.08-0.03,0.14-0.07,0.18-0.12c0.04-0.07,0.05-0.12,0.04-0.18c-0.01-0.06-0.05-0.11-0.11-0.16c-0.06-0.04-0.17-0.1-0.34-0.18
				c-0.32-0.15-0.54-0.27-0.65-0.37c-0.11-0.1-0.18-0.21-0.21-0.32c-0.04-0.18-0.02-0.34,0.08-0.49c0.1-0.15,0.24-0.26,0.43-0.31
				c0.12-0.03,0.25-0.04,0.37-0.01C51.78,89.3,51.93,89.38,52.1,89.49z"/>
		</g>
		<g>
			<path class="st0" d="M53.11,88.83l0.47-0.15l1.71,2.13l-0.48,0.15l-0.35-0.44l-0.98,0.32l-0.04,0.56l-0.48,0.15L53.11,88.83z
				 M53.55,89.39l-0.05,0.94l0.64-0.21L53.55,89.39z"/>
		</g>
		<g>
			<path class="st0" d="M54.7,88.28l0.45-0.17l0.76,1.94l0.66-0.26l0.17,0.43l-1.11,0.43L54.7,88.28z"/>
		</g>
		<g>
			<path class="st0" d="M55.97,87.79l0.44-0.21l0.71,1.49c0.06,0.12,0.12,0.21,0.16,0.26c0.05,0.04,0.1,0.06,0.17,0.08
				c0.07,0.01,0.14-0.02,0.22-0.05c0.08-0.04,0.13-0.08,0.17-0.15c0.04-0.06,0.05-0.12,0.05-0.19c0-0.06-0.05-0.17-0.12-0.33
				l-0.68-1.44l0.44-0.21l0.66,1.38c0.1,0.23,0.17,0.4,0.18,0.5c0.01,0.1,0.01,0.21-0.03,0.33c-0.03,0.12-0.09,0.22-0.16,0.31
				c-0.08,0.08-0.18,0.16-0.31,0.22c-0.16,0.08-0.33,0.11-0.48,0.09c-0.17-0.02-0.3-0.08-0.41-0.16c-0.11-0.09-0.23-0.27-0.35-0.55
				L55.97,87.79z"/>
		</g>
		<g>
			<path class="st0" d="M59.47,86.44l-0.2,0.43c-0.19-0.11-0.34-0.14-0.46-0.09c-0.06,0.03-0.1,0.06-0.12,0.11
				c-0.02,0.04-0.03,0.09-0.01,0.13c0.02,0.04,0.04,0.07,0.09,0.09c0.06,0.03,0.2,0.08,0.45,0.16c0.23,0.07,0.37,0.12,0.42,0.14
				c0.13,0.05,0.23,0.11,0.31,0.17c0.07,0.07,0.13,0.16,0.17,0.25c0.08,0.19,0.08,0.38,0,0.56c-0.08,0.18-0.22,0.32-0.44,0.41
				c-0.17,0.07-0.33,0.09-0.49,0.06c-0.15-0.03-0.32-0.11-0.48-0.25l0.27-0.39c0.2,0.16,0.37,0.21,0.52,0.15
				c0.08-0.04,0.13-0.09,0.16-0.15c0.03-0.07,0.04-0.13,0.01-0.19c-0.02-0.06-0.07-0.1-0.13-0.14c-0.06-0.03-0.18-0.08-0.37-0.13
				c-0.34-0.1-0.57-0.19-0.7-0.27c-0.12-0.08-0.21-0.18-0.25-0.29c-0.07-0.17-0.07-0.33,0-0.5c0.07-0.16,0.2-0.29,0.38-0.37
				c0.12-0.05,0.24-0.07,0.37-0.06C59.12,86.3,59.28,86.35,59.47,86.44z"/>
		</g>
		<g>
			<g>
				<path class="st0" d="M55.29,72.03h-3.88c-0.15,0-0.27-0.12-0.27-0.27V68.2c-0.66-0.22-1.28-0.51-1.86-0.89l-2.6,2.6
					c-0.1,0.1-0.27,0.1-0.38,0l-2.74-2.74c-0.05-0.05-0.08-0.12-0.08-0.19c0-0.07,0.03-0.14,0.08-0.19l2.78-2.78
					c-0.26-0.52-0.47-1.09-0.63-1.68h-4c-0.15,0-0.27-0.12-0.27-0.27v-3.88c0-0.15,0.12-0.26,0.27-0.26h3.95
					c0.15-0.61,0.36-1.19,0.62-1.74l-2.73-2.73c-0.1-0.1-0.1-0.27,0-0.38l2.74-2.74c0.1-0.1,0.27-0.1,0.38,0l2.51,2.51
					c0.6-0.4,1.26-0.72,1.95-0.96v-3.4c0-0.15,0.12-0.27,0.27-0.27h3.88c0.15,0,0.27,0.12,0.27,0.27v3.22
					c0.76,0.19,1.49,0.49,2.19,0.9l2.27-2.27c0.1-0.1,0.28-0.1,0.38,0l2.74,2.74c0.05,0.05,0.08,0.12,0.08,0.19
					c0,0.07-0.03,0.14-0.08,0.19l-2.33,2.32c0.38,0.68,0.66,1.39,0.84,2.14h3.34c0.15,0,0.27,0.12,0.27,0.26v3.88
					c0,0.15-0.12,0.27-0.27,0.27h-3.38c-0.19,0.73-0.48,1.43-0.85,2.08l2.38,2.38c0.05,0.05,0.08,0.12,0.08,0.19
					c0,0.07-0.03,0.14-0.08,0.19l-2.74,2.74c-0.1,0.1-0.27,0.1-0.38,0l-2.37-2.37c-0.67,0.38-1.37,0.67-2.09,0.84v3.38
					C55.56,71.91,55.44,72.03,55.29,72.03z M51.68,71.5h3.35v-3.32c0-0.12,0.09-0.23,0.21-0.26c0.8-0.17,1.58-0.49,2.32-0.93
					c0.11-0.06,0.24-0.05,0.33,0.04l2.33,2.33l2.37-2.36l-2.34-2.34c-0.09-0.09-0.1-0.22-0.04-0.33c0.43-0.71,0.75-1.49,0.95-2.31
					c0.03-0.12,0.14-0.2,0.26-0.2h3.32v-3.35h-3.28c-0.12,0-0.23-0.09-0.26-0.21c-0.18-0.83-0.5-1.63-0.93-2.37
					c-0.06-0.1-0.04-0.24,0.04-0.32l2.28-2.28l-2.37-2.37l-2.23,2.23c-0.09,0.09-0.23,0.1-0.33,0.04c-0.76-0.48-1.57-0.81-2.41-0.99
					c-0.12-0.03-0.21-0.13-0.21-0.26v-3.16h-3.35v3.33c0,0.12-0.08,0.22-0.19,0.25c-0.79,0.24-1.52,0.6-2.18,1.07
					c-0.1,0.08-0.25,0.06-0.34-0.03l-2.48-2.48l-2.36,2.37l2.68,2.67c0.08,0.08,0.1,0.21,0.05,0.31c-0.32,0.61-0.56,1.28-0.71,1.99
					c-0.03,0.12-0.13,0.21-0.26,0.21h-3.9v3.35h3.94c0.12,0,0.23,0.08,0.26,0.2c0.17,0.69,0.41,1.34,0.73,1.94
					c0.06,0.1,0.04,0.23-0.05,0.31l-2.73,2.73l2.37,2.36l2.57-2.57c0.09-0.09,0.23-0.1,0.34-0.03c0.64,0.44,1.34,0.78,2.09,1.01
					c0.11,0.03,0.19,0.14,0.19,0.25V71.5z"/>
			</g>
			<g>
				<path class="st0" d="M53.66,65.67c-3.01,0-5.46-2.52-5.46-5.62c0-3.1,2.45-5.62,5.46-5.62c3.01,0,5.46,2.52,5.46,5.62
					C59.13,63.15,56.67,65.67,53.66,65.67z M53.66,54.97c-2.72,0-4.93,2.28-4.93,5.09c0,2.81,2.21,5.09,4.93,5.09
					c2.72,0,4.93-2.28,4.93-5.09C58.59,57.25,56.38,54.97,53.66,54.97z M53.59,63.65c-2.03,0-3.68-1.65-3.68-3.68
					c0-2.03,1.65-3.68,3.68-3.68c2.03,0,3.68,1.65,3.68,3.68C57.26,62,55.61,63.65,53.59,63.65z M53.59,56.83
					c-1.74,0-3.15,1.41-3.15,3.15c0,1.74,1.41,3.15,3.15,3.15c1.73,0,3.15-1.41,3.15-3.15C56.73,58.24,55.32,56.83,53.59,56.83z"/>
			</g>
			<g>
				<path class="st0" d="M53.66,62.14c-1.22,0-2.2-0.95-2.2-2.13s0.99-2.13,2.2-2.13c1.22,0,2.21,0.95,2.21,2.13
					S54.88,62.14,53.66,62.14z M53.66,58.42c-0.92,0-1.67,0.71-1.67,1.59c0,0.88,0.75,1.59,1.67,1.59c0.92,0,1.67-0.71,1.67-1.59
					C55.34,59.13,54.59,58.42,53.66,58.42z"/>
			</g>
		</g>
	</g>
</g>
</svg>
